<svg xmlns="http://www.w3.org/2000/svg" viewBox="0 0 1486 6427" width="1486" height="6427">
	<defs>
		<linearGradient id="grd1" gradientUnits="userSpaceOnUse"  x1="586.977" y1="1347.652" x2="589.47" y2="1407.352">
			<stop offset="0.107" stop-color="#74c7a9"  />
			<stop offset="0.979" stop-color="#54866a"  />
		</linearGradient>
		<linearGradient id="grd2" gradientUnits="userSpaceOnUse"  x1="783.207" y1="1343.555" x2="785.369" y2="1402.012">
			<stop offset="0.107" stop-color="#74c7a9"  />
			<stop offset="0.979" stop-color="#54866a"  />
		</linearGradient>
		<linearGradient id="grd3" gradientUnits="userSpaceOnUse"  x1="933.093" y1="1342.094" x2="933.612" y2="1385.309">
			<stop offset="0.107" stop-color="#74c7a9"  />
			<stop offset="0.979" stop-color="#54866a"  />
		</linearGradient>
	</defs>
	<style>
		tspan { white-space:pre }
		.shp0 { fill: #a5af22 } 
		.shp1 { fill: #c0d13c } 
		.shp2 { fill: #996e36 } 
		.shp3 { fill: #9da52b } 
		.shp4 { fill: url(#grd1);stroke: #389e8a } 
		.shp5 { fill: url(#grd2);stroke: #389e8a } 
		.shp6 { fill: url(#grd3);stroke: #389e8a } 
		.shp7 { fill: #fdf5e9 } 
		.shp8 { fill: none;stroke: #fdf5e9;stroke-width: 5 } 
		.shp9 { fill: #d6a56b } 
		.shp10 { opacity: 0.6;fill: #d6a56b } 
		.shp11 { opacity: 0.6;fill: #382715 } 
		.shp12 { fill: #d1904f } 
		.txt13 { font-size: 81px;fill: #ffffff;font-family: "Desyrel";font-weight: 400 } 
		.shp14 { fill: #70421a } 
		.shp15 { fill: #b76c29 } 
		.shp16 { opacity: 0.702;fill: #b76c29 } 
		.txt17 { font-size: 88px;fill: #ffffff;font-family: "Desyrel";font-weight: 400 } 
		.shp18 { fill: #382715 } 
		.shp19 { fill: #edd1b7 } 
		.shp20 { fill: #7c5433 } 
		.shp21 { fill: #ffffff } 
		.shp22 { opacity: 0.6;fill: #7c5433 } 
		.shp23 { opacity: 0.4;fill: #d6a56b } 
		.shp24 { fill: #547f0f } 
		.shp25 { fill: #2e8260;stroke: #38845a } 
		.shp26 { fill: #52a082;stroke: #38845a } 
		.shp27 { fill: #301b08 } 
		.txt28 { font-size: 93px;fill: #ffffff;font-family: "Desyrel";font-weight: 400 } 
		.shp29 { fill: none } 
		.shp30 { fill: #724924 } 
		.shp31 { fill: #f7af3c } 
		.shp32 { fill: #52a082 } 
		.shp33 { fill: #fdfdfe } 
		.shp34 { fill: #081414 } 
		.shp35 { opacity: 0.502;fill: #7c5433 } 
		.shp36 { fill: none;stroke: #eacbac;stroke-width: 4 } 
		.txt37 { font-size: 74px;fill: #ffffff;font-family: "Desyrel";font-weight: 400 } 
		.shp38 { fill: #422b0d } 
		.shp39 { opacity: 0.702;fill: #d6a56b } 
		.shp40 { fill: #a59e8c } 
		.shp41 { fill: none;stroke: #382715;stroke-width: 3 } 
		.shp42 { fill: none;stroke: #996e36;stroke-width: 4 } 
		.shp43 { fill: #f90b61 } 
	</style>
	<path id="Layer" class="shp0" d="M1034.2 278.2C964.74 278.2 908.6 227.24 908.6 164.2C908.6 101.16 964.74 50.2 1034.2 50.2C1103.66 50.2 1159.8 101.16 1159.8 164.2C1159.8 227.24 1103.66 278.2 1034.2 278.2Z" />
	<path id="Layer" class="shp0" d="M1353.3 3673.9C1294.63 3673.9 1247.2 3626.88 1247.2 3568.7C1247.2 3510.52 1294.63 3463.5 1353.3 3463.5C1411.97 3463.5 1459.4 3510.52 1459.4 3568.7C1459.4 3626.88 1411.97 3673.9 1353.3 3673.9Z" />
	<path id="Layer" class="shp1" d="M768.4 4456.2C691.37 4456.2 629.1 4394.51 629.1 4318.2C629.1 4241.89 691.37 4180.2 768.4 4180.2C845.43 4180.2 907.7 4241.89 907.7 4318.2C907.7 4394.51 845.43 4456.2 768.4 4456.2Z" />
	<path id="Layer" class="shp0" d="M1204.85 4471.66C1146.81 4480.25 1093.01 4440.72 1084.5 4383.23C1076 4325.74 1116.03 4272.32 1174.07 4263.73C1232.11 4255.14 1285.9 4294.67 1294.41 4352.16C1302.92 4409.66 1262.88 4463.07 1204.85 4471.66Z" />
	<path id="Layer" class="shp1" d="M1314.1 1205C1262.67 1205 1221.1 1165.22 1221.1 1116C1221.1 1066.78 1262.67 1027 1314.1 1027C1365.53 1027 1407.1 1066.78 1407.1 1116C1407.1 1165.22 1365.53 1205 1314.1 1205Z" />
	<path id="Layer" class="shp2" d="M1246.8 1119.9L1303.5 1127.8L1303.5 1132.3L1238.6 1127.8L1246.8 1119.9Z" />
	<path id="Layer" class="shp2" d="M850.3 1746.7L841.6 1740.6L761.6 1767.3L790.1 1694.6L786.5 1686.4L743.8 1774L751 1958.2L624.8 2082.5L664.9 2135.6L783.6 1968.8L761.6 1785L850.3 1746.7Z" />
	<path id="Layer" class="shp0" d="M130.07 4240.67C72.03 4249.26 18.23 4209.73 9.72 4152.24C1.22 4094.74 41.25 4041.33 99.29 4032.74C157.33 4024.15 211.12 4063.68 219.63 4121.17C228.14 4178.66 188.11 4232.08 130.07 4240.67Z" />
	<path id="Layer" class="shp0" d="M1131.5 1823.7C1081.23 1823.7 1040.6 1784.9 1040.6 1736.9C1040.6 1688.9 1081.23 1650.1 1131.5 1650.1C1181.77 1650.1 1222.4 1688.9 1222.4 1736.9C1222.4 1784.9 1181.77 1823.7 1131.5 1823.7Z" />
	<path id="Layer" class="shp0" d="M301.2 2716.9C238.49 2716.9 187.8 2670.86 187.8 2613.9C187.8 2556.94 238.49 2510.9 301.2 2510.9C363.91 2510.9 414.6 2556.94 414.6 2613.9C414.6 2670.86 363.91 2716.9 301.2 2716.9Z" />
	<path id="Layer" class="shp0" d="M1332.5 1681.1C1263.04 1681.1 1206.9 1630.14 1206.9 1567.1C1206.9 1504.06 1263.04 1453.1 1332.5 1453.1C1401.96 1453.1 1458.1 1504.06 1458.1 1567.1C1458.1 1630.14 1401.96 1681.1 1332.5 1681.1Z" />
	<path id="Layer" class="shp1" d="M124 3284.1C55.48 3284.1 0.1 3229.16 0.1 3161.2C0.1 3093.24 55.48 3038.3 124 3038.3C192.52 3038.3 247.9 3093.24 247.9 3161.2C247.9 3229.16 192.52 3284.1 124 3284.1Z" />
	<g id="Layer">
		<path id="Layer" class="shp3" d="M906 6210.6C904.7 6208 903.9 6206.6 903.9 6206.6C903.9 6206.6 904.6 6208 906 6210.6Z" />
		<path id="Layer" class="shp3" d="M1075.3 6185.4C1074 6172.2 1074 6184.3 1074.4 6202.3C1075.4 6196 1075.8 6190.3 1075.3 6185.4Z" />
		<path id="Layer" class="shp3" d="M1095.1 6124.9C1095 6122.3 1094.8 6119.8 1094.6 6117.3C1093.7 6105 1094.1 6110.4 1095.1 6124.9Z" />
		<path id="Layer" class="shp3" d="M1621.2 6429.1C1555.3 6422.1 1461.5 6348.8 1307.7 6285.4C1283.3 6243 1302.3 6171.8 1292 6197.1C1279.6 6227.7 1293.5 6278.4 1278.6 6273.8C1278.2 6273.6 1277.8 6273.5 1277.3 6273.3L1277.3 6273.3C1260.3 6265.4 1249.6 6171.9 1245.5 6182.9C1242.1 6192.4 1252.7 6266.6 1226.4 6255.1C1178.8 6217 1278.8 6033.1 1226.6 6130.6C1195.2 6189.3 1196.6 6228.6 1198.5 6246.2C1177.5 6214.1 1180.7 6158.2 1174.9 6174.4C1168.5 6192.3 1173.2 6263.2 1161.3 6210.3C1149.4 6157.4 1188.9 6095.2 1162.1 6139.3C1135.2 6183.4 1129.2 6237.1 1123.3 6209.9C1113.6 6165.2 1164.4 6075.3 1140.7 6110.1C1117 6144.8 1098.5 6208.7 1100.9 6198.4C1102.7 6191 1095.6 6089.6 1092.9 6051.4C1096 6119.8 1071.4 6198.4 1072.5 6184.9C1073.1 6177.4 1072.5 6149.2 1072.1 6128.7C1068.8 6149 1059 6173.9 1053.2 6187.6C1045.5 6112.8 1003.1 5968.4 1028.4 6072.9C1057.4 6192.7 1016.6 6226.4 1022.4 6202.6C1028.2 6178.8 971.6 6086 979.2 6104.8C986.8 6123.7 1016.7 6226.4 987 6205.6C957.3 6184.8 943.7 6087.3 942 6131.7C940.8 6164.1 955.5 6196.7 957.6 6208.5C954.8 6208.6 951.8 6209.8 949.2 6208.8C931.3 6201.8 911 6150.6 903.8 6137C910.2 6149.4 912.9 6211.3 902.9 6212.5C849.6 6164.3 897.1 6022.2 872.2 6083.2C853.1 6130 867.6 6193.2 871.8 6216.8C870 6217.1 868.3 6217.4 866.5 6217.7C855.9 6195.3 843 6142.3 848.4 6164.9C852.1 6180.5 851.8 6226 834.9 6223.9C831.9 6196.4 803 6103.2 813.2 6137.2C824 6173.2 821.5 6205.1 812.2 6224.4C811.1 6226.7 807.3 6230.6 805.1 6231.1C802.1 6145.2 715.1 5997.9 740.7 6054.4C762 6101.3 773.5 6210.6 776.2 6239.5C775.7 6239.7 775.1 6239.8 774.6 6240C768.3 6221.7 751.7 6173.5 757.8 6194.5C765.3 6220.2 747.3 6246.3 747.3 6246.3C747.3 6246.3 713.4 6139.4 723.8 6179.8C730 6203.8 726.2 6241.7 721.6 6259.5C719.2 6260.5 716.8 6261.5 714.5 6262.5C714.3 6261 714.2 6259.2 714.1 6257.2C711.8 6214.5 668.3 6150.8 685.1 6179.3C701.9 6207.8 698 6280.9 692.7 6270.6C687.5 6260.3 659 6217.3 659 6217.3C659 6217.3 678.6 6270.2 671.7 6283.1C670 6284 668.3 6284.9 666.6 6285.9C664.5 6285.7 661.7 6284.6 658.3 6282.2C625.2 6259.6 637.2 6148.8 631.4 6210.2C628.1 6244.7 643.5 6278.4 650.6 6295.1C648.3 6296.5 646 6297.9 643.7 6299.3C642.4 6298.2 641 6297 639.5 6295.6C600.3 6261 612.8 6112.6 605.7 6178.4C598.7 6244.2 622.9 6295.4 622.9 6295.4L592.1 6262.6C592.1 6262.6 622.9 6322.7 605.5 6310.5C588.2 6298.4 578.1 6262.4 578.1 6262.4C578.1 6262.4 561.7 6313.8 581.1 6355.9C603.6 6404.6 662.4 6439.7 726.2 6430.9C932.2 6402.4 947.3 6370.1 1213.7 6438C1428.6 6493 1711.2 6438.6 1621.2 6429.1Z" />
	</g>
	<path id="Layer" class="shp1" d="M134.5 2908.9C81.97 2908.9 39.5 2866.43 39.5 2813.9C39.5 2761.37 81.97 2718.9 134.5 2718.9C187.03 2718.9 229.5 2761.37 229.5 2813.9C229.5 2866.43 187.03 2908.9 134.5 2908.9Z" />
	<path id="Layer" class="shp1" d="M1263.5 1490.3C1203.33 1490.3 1154.7 1443.32 1154.7 1385.2C1154.7 1327.08 1203.33 1280.1 1263.5 1280.1C1323.67 1280.1 1372.3 1327.08 1372.3 1385.2C1372.3 1443.32 1323.67 1490.3 1263.5 1490.3Z" />
	<path id="Layer" class="shp1" d="M396.7 2582.1C333.99 2582.1 283.3 2536.06 283.3 2479.1C283.3 2422.14 333.99 2376.1 396.7 2376.1C459.41 2376.1 510.1 2422.14 510.1 2479.1C510.1 2536.06 459.41 2582.1 396.7 2582.1Z" />
	<path id="Layer" class="shp1" d="M169 2242.1C100.15 2242.1 44.5 2189.89 44.5 2125.3C44.5 2060.71 100.15 2008.5 169 2008.5C237.85 2008.5 293.5 2060.71 293.5 2125.3C293.5 2189.89 237.85 2242.1 169 2242.1Z" />
	<path id="Layer" class="shp1" d="M1026 995.2C974.57 995.2 933 955.42 933 906.2C933 856.98 974.57 817.2 1026 817.2C1077.43 817.2 1119 856.98 1119 906.2C1119 955.42 1077.43 995.2 1026 995.2Z" />
	<path id="Layer" class="shp1" d="M550 935.4C498.57 935.4 457 895.62 457 846.4C457 797.18 498.57 757.4 550 757.4C601.43 757.4 643 797.18 643 846.4C643 895.62 601.43 935.4 550 935.4Z" />
	<path id="Layer" class="shp1" d="M894.9 334.1C838.55 334.1 793 288.51 793 232.1C793 175.69 838.55 130.1 894.9 130.1C951.25 130.1 996.8 175.69 996.8 232.1C996.8 288.51 951.25 334.1 894.9 334.1Z" />
	<path id="Layer" class="shp1" d="M1255.4 1034.8C1173.33 1034.8 1107 972.58 1107 895.6C1107 818.62 1173.33 756.4 1255.4 756.4C1337.47 756.4 1403.8 818.62 1403.8 895.6C1403.8 972.58 1337.47 1034.8 1255.4 1034.8Z" />
	<path id="Layer" class="shp1" d="M1115.2 334.1C1064.43 334.1 1023.4 294.32 1023.4 245.1C1023.4 195.88 1064.43 156.1 1115.2 156.1C1165.97 156.1 1207 195.88 1207 245.1C1207 294.32 1165.97 334.1 1115.2 334.1Z" />
	<path id="Layer" class="shp1" d="M401.7 462.7C323.56 462.7 260.4 401.01 260.4 324.7C260.4 248.39 323.56 186.7 401.7 186.7C479.84 186.7 543 248.39 543 324.7C543 401.01 479.84 462.7 401.7 462.7Z" />
	<path id="Layer" class="shp1" d="M181 533.7C129.57 533.7 88 493.92 88 444.7C88 395.48 129.57 355.7 181 355.7C232.43 355.7 274 395.48 274 444.7C274 493.92 232.43 533.7 181 533.7Z" />
	<path id="Layer" class="shp4" d="M585.9 1225.6C613.9 1225.6 637.8 1252.1 646.6 1289.1C649 1299.1 650.3 1309.9 650.3 1321.1C650.3 1373.8 621.5 1416.6 585.9 1416.6C550.3 1416.6 521.5 1373.8 521.5 1321.1C521.5 1310.8 522.6 1301 524.6 1291.7C532.9 1253.3 557.2 1225.6 585.9 1225.6Z" />
	<path id="Layer" class="shp5" d="M782.5 1404.6C754.3 1404.6 731.5 1369.33 731.5 1325.7C731.5 1282.07 754.3 1246.8 782.5 1246.8C810.7 1246.8 833.5 1282.07 833.5 1325.7C833.5 1369.33 810.7 1404.6 782.5 1404.6Z" />
	<path id="Layer" class="shp6" d="M933 1394.1C913.15 1394.1 897.1 1368.62 897.1 1337.1C897.1 1305.58 913.15 1280.1 933 1280.1C952.85 1280.1 968.9 1305.58 968.9 1337.1C968.9 1368.62 952.85 1394.1 933 1394.1Z" />
	<path id="Layer" class="shp2" d="M609 2386.1L433.8 2280.1L258 2268.9L151 2152.1L129 2152.1L241 2300.1L425 2314.1L625.5 2474.9L609 2386.1Z" />
	<path id="Layer" class="shp2" d="M501.7 3028.1L444.7 2992.1L444.7 2992.1L373.7 2787.5L410.2 2426.6L399.7 2446.1L349.7 2766.1L412.7 2971.9L273.7 2884.1L152.4 2840.2L100.2 2821.4L95.2 2827.6L265.7 2906.1L485.7 3058.1L613.7 3330.1L665.7 3256.1L501.7 3028.1Z" />
	<path id="Layer" class="shp1" d="M380.4 2906.1C310.17 2906.1 253.4 2849.33 253.4 2779.1C253.4 2708.87 310.17 2652.1 380.4 2652.1C450.63 2652.1 507.4 2708.87 507.4 2779.1C507.4 2849.33 450.63 2906.1 380.4 2906.1Z" />
	<path id="Layer" class="shp2" d="M341.8 2492.1L396.7 2540.1L396.7 2564.1L336.3 2492.1" />
	<path id="Layer" class="shp2" d="M198.3 2212.1C193 2120.1 183.2 2067.9 183.2 2067.9L197.1 2083L230.9 2253.4L198.3 2212.1Z" />
	<g id="Layer" style="opacity: 0.502">
		<path id="Layer" class="shp7" d="M465.7 3696.1L462.1 3692.2L497.1 3695.7L495.5 3700.6L481 3698.1L478 3733.1L491.3 3737.6L490.2 3741L459.3 3735.1L461.3 3732.4L473.6 3733.3L477.6 3698.5L465.7 3696.1Z" />
		<path id="Layer" class="shp8" d="M472.9 3761.5C467.8 3752.1 458 3748.8 450.7 3754.1C443.5 3759.3 448.1 3778.4 456.4 3786.1C464.7 3793.8 473.8 3797.4 474.7 3801.5C475.6 3805.6 483.7 3796.3 488.6 3791.4C493.5 3786.5 510.2 3773.5 503.6 3764.6C488.9 3744.9 472.9 3761.5 472.9 3761.5Z" />
		<path id="Layer" class="shp8" d="M437.5 3816.5C437.5 3816.5 426.8 3814 423.5 3818.9C420.2 3823.8 414.1 3838.2 418.4 3846.2C422.7 3854.2 432.5 3857.5 435.8 3854.2" />
		<path id="Layer" class="shp8" d="M442.4 3854.3L457.8 3820.5L464.8 3846.3L469 3859.3" />
		<path id="Layer" class="shp8" d="M463.6 3841.9L448.5 3840.9" />
		<path id="Layer" class="shp8" d="M481 3823.4L494.2 3820.7L505.9 3821.8" />
		<path id="Layer" class="shp8" d="M494.2 3820.7L492.9 3846L493 3853.7" />
		<path id="Layer" class="shp8" d="M533.3 3826.6C533.3 3826.6 526.9 3822.8 523 3823.1C519.1 3823.4 516.3 3825.2 516.3 3830.2C516.3 3835.1 527.1 3838.8 529.1 3839.4C531.1 3840.1 536.8 3844.2 534.6 3850.9C532.4 3857.5 515.5 3863.9 511.9 3858.1C508.4 3852.3 507.1 3848 507.1 3848" />
	</g>
	<path id="Layer" class="shp2" d="M1270 1540.6L1160.5 1606.6L1061.5 1561.6L1184.5 1483.6L1254.9 1372.3L1241.5 1375.7L1169.5 1467.1L1013.5 1557.1L784.6 1578.1L533 1465.4L1035 1425.6L1097.2 1230.9L1196.5 1191.2L1276 1075.7L1258 1087.7L1192 1165.7L1096.2 1199.5L1213 921.9L1198 921.9L1119.2 1091.1L1055.5 988.7L1034.5 882.2L1027 912.1L1040.5 990.2L1103.4 1125L1011 1387.1L479.6 1419.2L368.6 1518.2L284 1083.2L318.6 992.9L439.1 879.2L555.8 852.2L555.8 844.7L434.6 864.2L328.1 946.7L391 802.1L460.8 535L1017 422.1L1127 222.1L1127 206.1L1003 402.1L800.2 438.6L900.9 340.6L910.9 212.6L898.9 240.6L884.7 332.6L764 445.2L436.7 504.1L357.7 723L285 542.1L359 342.1L353 332.1L258.1 536.3L203 467.5L191 467.5L252.2 557.4L314 776.7L169 1106.4L235 1602.1L555.8 2232.1L673 2738.1L633.7 3204.4L281.7 4004L252.1 4348.5L334.6 4804.8L442.4 5244.8L476.2 5520.8L368.4 5929.3L210.6 6328.9L1018.5 6324.2L941.5 5629.5L728.6 4942.8L529.5 4346.8L521 4130.6L530.9 3994.1L593 3810.1L818.4 3266.2L853 2678.1L688.7 2178.1L398.4 1595.1L495 1502.1L770.8 1614.1L1031 1588.1L1156 1633.6L1287.5 1542.1L1270 1540.6Z" />
	<path id="Layer" class="shp2" d="M1194.5 962.1L1242.5 953.6L1278.5 900.6L1287.5 895.6L1248.5 962.1L1189.6 977.5L1194.5 962.1Z" />
	<path id="Layer" class="shp2" d="M499.8 853.7L521.4 813.6L526.2 813.6L507.3 857.6L499.8 853.7Z" />
	<path id="Layer" class="shp2" d="M1037.5 941.6L1002.5 930.6L980.5 906.2L975.5 906.2L999.5 941.6L1037.5 954.6L1037.5 944.6L1037.5 941.6Z" />
	<path id="Layer" class="shp2" d="M338.2 398.2L393.6 381.3L423.3 334.1L435.3 334.1L399.6 398.2L330.2 419.8L338.2 398.2Z" />
	<path id="Layer" class="shp2" d="M897.1 274.8L857 232.1L851 186.3L845 196.8L845 245.1L897.1 298.8L897.1 274.8Z" />
	<path id="Layer" class="shp9" d="M301.2 682.3L330.2 774.6L195.4 1078.8L312.5 846.4L345.5 772.6L301.2 682.3Z" />
	<path id="Layer" class="shp9" d="M415.5 632.8L365.5 803.6L306.5 944.6L375.5 806.6L415.5 632.8Z" />
	<path id="Layer" class="shp9" d="M280.4 1017.4L240.5 1137.3L316.4 1552.7L256.4 1137.3L280.4 1017.4Z" />
	<path id="Layer" class="shp9" d="M195.4 1195.4L260.6 1587.2L494.6 2013.5L278.5 1582.7L195.4 1195.4Z" />
	<path id="Layer" class="shp2" d="M492.2 866.9L545.8 895.6L592.5 881.3L592.5 875.9L545.8 887.3L507.3 857.6L492.2 866.9Z" />
	<path id="Layer" class="shp2" d="M1221.3 1425.6L1271 1425.6L1311.5 1394.1L1320.5 1394.1L1271 1436.6L1206.5 1436.6L1221.3 1425.6Z" />
	<path id="Layer" class="shp10" d="M284.1 944.6L204.9 1133L240.5 1287.4L219.1 1129.9L284.1 944.6Z" />
	<path id="Layer" class="shp9" d="M336.3 1592.6L610.5 2125.3L702.5 2366.6L629 2125.3L336.3 1592.6Z" />
	<path id="Layer" class="shp11" d="M637.6 2071.7L489.1 2099.1L468.3 2059.7L620.2 2036.8L637.6 2071.7Z" />
	<g id="Layer">
		<g id="Layer">
			<g id="Layer">
				<path id="SVGID_1_" class="shp12" d="M246.4 1950.4L250 1960L279.7 1958.5L257.8 1961.9L248.8 1966.3L254.2 1993.9L312.4 1987.2L262 1995.2L253.4 1998.9L257.9 2010.2L277.4 2009.1L263.3 2012.2L255.4 2014.9L264.3 2039.7L282.4 2038.3L272.5 2040.8L265 2043.5L266.9 2049.1L287.1 2048L265.8 2053.6L268.3 2064.3L281.2 2064.6L273.7 2067L266.9 2069.2L272.5 2096.4L287.5 2094.4C287.5 2094.4 662.8 2038.5 759.3 2027.8C855.2 2017.2 857.9 2017.1 857.9 2017.1L869.1 2009.7L853.2 1962L838.1 1961.8L856.7 1955L848.8 1914.7L822 1917.1L843.3 1909L841.2 1901L820.8 1902.1L836.9 1897.7L843.1 1893.2L836.6 1863.3C836.6 1863.3 445.1 1917.5 373.8 1930.1C318.2 1939.9 253.8 1947.1 253.8 1947.1L246.4 1950.4Z" />
				<text id="MIS TRABAJOS " style="transform: matrix(0.989,-0.149,0.149,0.989,274.718,1997.51)" >
					<tspan x="0" y="81" class="txt13">MIS TRABAJOS</tspan>
				</text>
			</g>
			<g id="Layer">
				<g id="Layer">
					<g id="Layer">
						<g id="Layer">
							<g id="Layer">
								<g id="Layer">
									<g id="Layer">
										<g id="Layer">
											<g id="Layer">
												<g id="Layer">
													<g id="Layer">
														<g id="Layer">
															<g id="Layer">
																<g id="Layer">
																	<g id="Layer">
																		<g id="Layer">
																			<g id="Layer">
																				<g id="Layer">
																					<g id="Layer">
																						<g id="Layer">
																							<g id="Layer">
																								<path id="Layer" class="shp14" d="M254.35 1950L255.62 1959.8L326.57 1953.7L256.31 1964.9L259.93 1992.2L429.32 1970.8L259.73 1998.2L263.94 2009.9L320.99 2003.8L263.16 2013.7L269.72 2039.1L639.72 1989.7L272.16 2042.1L273.73 2048.4L314.54 2044.7L271.48 2052.7L273.04 2064.3L298.29 2064.3L273.53 2067.7L279.89 2092.8C279.89 2092.8 510.25 2057.8 548.22 2053.5C586.19 2049.1 811.56 2016.7 855.2 2013.3C864.89 2012.5 850.31 1976 847.86 1961.4C847.86 1961.4 663.5 1988 663.4 1987.2C663.2 1984.8 827.21 1959.6 850.31 1956.4C851.78 1956.2 837.59 1925.5 834.85 1917.3C834.46 1916.2 556.44 1951.6 556.44 1951.6C373.64 1976 817.04 1913.1 841.11 1910C842.87 1909.8 843.17 1905.5 843.26 1901.3C843.36 1899.1 772.9 1908.9 773 1908.9C791.99 1904.3 849.23 1892 849.23 1892L869 2016.2L263.36 2102.4L233.9 1954.3L254.35 1950Z" />
																							</g>
																						</g>
																					</g>
																				</g>
																			</g>
																		</g>
																	</g>
																</g>
															</g>
														</g>
													</g>
												</g>
											</g>
										</g>
									</g>
								</g>
							</g>
						</g>
					</g>
				</g>
			</g>
		</g>
		<path id="Layer" class="shp15" d="M305.5 1947.6C305.5 1947.6 541.5 1914.7 593.6 1908.5C645.7 1902.3 795.9 1880.8 810 1879.1C824.1 1877.5 660.1 1902.7 607.4 1909.8C554.6 1917 305.5 1947.6 305.5 1947.6Z" />
		<path id="Layer" class="shp15" d="M264.2 1970C281.9 1968.8 490.8 1941.6 581.5 1929.9C644 1921.8 679.3 1916.3 662.1 1917.7C639.5 1919.6 526.1 1933.7 264.2 1970Z" />
		<path id="Layer" class="shp16" d="M831.3 1933.2C780.9 1936.2 584.8 1957.2 477.4 1977.7C370 1998.2 304.5 2011.4 304.5 2011.4C304.5 2011.4 490.9 1977.3 567.4 1968.4C643.8 1959.5 831.3 1933.2 831.3 1933.2Z" />
		<path id="Layer" class="shp15" d="M280.4 2026.9C292.1 2025.6 379 2015.9 415.8 2009.3C452.6 2002.8 468.3 2001.7 468.3 2001.7C468.3 2001.7 417.7 2010.1 396 2014.2C371.6 2018.9 280.4 2026.9 280.4 2026.9Z" />
		<path id="Layer" class="shp16" d="M296 2062.1C332.6 2057.5 487.9 2028.2 572.8 2021.4C657.8 2014.6 726.4 2007.2 726.4 2007.2C726.4 2007.2 510.9 2029.1 456.1 2039.8C401.3 2050.6 296 2062.1 296 2062.1Z" />
		<path id="Layer" class="shp15" d="M395.1 1968.5C426.6 1964.6 560 1938.3 633.3 1933.1C706.5 1927.9 765.6 1921.8 765.6 1921.8C765.6 1921.8 580 1939.6 532.9 1949.3C485.7 1958.9 395.1 1968.5 395.1 1968.5Z" />
		<path id="Layer" class="shp15" d="M472.5 1997.1C503.3 1992.1 688.2 1964.2 758.8 1957.8C829.5 1951.4 845.2 1947.7 845.2 1947.7C845.2 1947.7 808.2 1955.1 786.2 1958.4C764.1 1961.6 472.5 1997.1 472.5 1997.1Z" />
		<path id="Layer" class="shp15" d="M462.5 2026.4C483.9 2022.9 647.6 1999.8 716.6 1993.8C785.6 1987.8 810.1 1978.6 810.1 1978.6C810.1 1978.6 716.5 1992.4 675.7 1995.3C629.7 1998.7 462.5 2026.4 462.5 2026.4Z" />
		<path id="Layer" class="shp15" d="M497.6 2050.5C533.9 2044 618.6 2035.1 680.8 2024.1C741.8 2013.2 852.6 2001.8 852.6 2001.8C852.6 2001.8 738.7 2020.2 712.4 2023.3C686.1 2026.5 444.5 2059.7 444.5 2059.7L497.6 2050.5Z" />
		<path id="Layer" class="shp15" d="M836.6 1883.8C836.6 1883.8 710.8 1902 679 1905.2C647.2 1908.3 839.5 1888.1 839.5 1888.1L836.6 1883.8Z" />
		<path id="Layer" class="shp15" d="M276.9 2077.9L401 2061L278.1 2082.2L276.9 2077.9Z" />
	</g>
	<g id="Layer">
	</g>
	<path id="Layer" class="shp11" d="M407.9 737.3L303.9 735.4L292.1 697.3L348.6 697.3L357.7 723L364.9 697.3L418.1 698.3L407.9 737.3Z" />
	<g id="Layer">
		<g id="Layer">
			<g id="Layer">
				<path id="SVGID_3_" class="shp12" d="M120.1 565.1L122.2 575.1L151.8 578L129.6 578.1L120 581.1L121.2 609.2L179.7 611.2L128.6 611.6L119.6 614L122.4 625.8L141.9 627.6L127.5 628.5L119.3 630L124.5 655.9L142.6 657.2L132.4 658.2L124.6 659.7L125.6 665.5L145.7 667.4L123.8 669.8L124.7 680.7L137.4 682.9L129.6 684.2L122.5 685.3L124 713.1L139.1 713.3C139.1 713.3 518.5 713.6 615.6 717.3C712 721 714.7 721.3 714.7 721.3L726.9 715.6L718.2 666.1L703.3 663.6L722.7 659.6L720.9 618.5L694.1 616.9L716.3 612L715.4 603.8L695.1 601.9L711.7 599.9L718.5 596.3L716.5 565.8C716.5 565.8 321.3 561.4 248.9 563.3C192.5 564.8 127.7 562.3 127.7 562.3L120.1 565.1Z" />
				<text id="FRONT-END " style="transform: matrix(1,0,0,1,170,593)" >
					<tspan x="0" y="88" class="txt17">FRONT-END</tspan>
				</text>
			</g>
			<g id="Layer">
				<g id="Layer">
					<g id="Layer">
						<g id="Layer">
							<g id="Layer">
								<g id="Layer">
									<g id="Layer">
										<g id="Layer">
											<g id="Layer">
												<g id="Layer">
													<g id="Layer">
														<g id="Layer">
															<g id="Layer">
																<g id="Layer">
																	<g id="Layer">
																		<g id="Layer">
																			<g id="Layer">
																				<g id="Layer">
																					<g id="Layer">
																						<g id="Layer">
																							<g id="Layer">
																								<path id="Layer" class="shp14" d="M129.9 563.1L129.8 573L202.4 577.6L129.7 578L129.3 605.6L303.7 610.1L128.2 611.5L130.7 623.7L189.3 626.3L129.4 627.4L132.2 653.5L513.5 660.7L134.3 656.9L134.9 663.4L176.7 665.9L132 667.3L131.8 679L157.3 682.9L131.8 682.5L134.5 708.3C134.5 708.3 372.5 708.6 411.5 710C450.5 711.4 683 713.5 727.7 716.7C737.6 717.4 728.2 679 728 664.3C728 664.3 537.7 662.7 537.8 661.8C537.9 659.3 707.4 659.3 731.2 659.6C732.7 659.6 722.9 627.1 721.3 618.6C721.1 617.5 434.9 610.3 434.9 610.3C246.6 606.8 704 611.7 728.7 612.2C730.5 612.2 731.5 608 732.2 603.9C732.6 601.7 659.9 600.8 660 600.8C679.9 599.1 739.5 595.6 739.5 595.6L741.1 721.4L116.5 715L108.7 564.1L129.9 563.1Z" />
																							</g>
																						</g>
																					</g>
																				</g>
																			</g>
																		</g>
																	</g>
																</g>
															</g>
														</g>
													</g>
												</g>
											</g>
										</g>
									</g>
								</g>
							</g>
						</g>
					</g>
				</g>
			</g>
		</g>
		<path id="Layer" class="shp15" d="M180.4 568.3C180.4 568.3 418.6 570.7 471.1 572.4C523.6 574 675.3 575 689.5 575.4C703.7 575.9 537.7 576.5 484.6 575.8C431.3 575 180.4 568.3 180.4 568.3Z" />
		<path id="Layer" class="shp15" d="M136.2 584.3C153.9 585.7 364.5 589.8 455.9 591.7C518.9 593 554.6 592.7 537.5 591.6C514.9 590.1 400.6 587.2 136.2 584.3Z" />
		<path id="Layer" class="shp16" d="M708.5 632.8C658.2 628.3 461.2 620 351.9 624.3C242.6 628.6 175.9 632.1 175.9 632.1C175.9 632.1 365.3 626 442.2 628.5C519.2 631 708.5 632.8 708.5 632.8Z" />
		<path id="Layer" class="shp15" d="M143.9 643C155.6 643.5 243 646.7 280.4 645.7C317.8 644.7 333.4 645.9 333.4 645.9C333.4 645.9 282.1 646.7 260.1 647.6C235.1 648.6 143.9 643 143.9 643Z" />
		<path id="Layer" class="shp16" d="M154 680.1C190.9 681 348.8 675 433.8 680.9C518.9 686.8 587.8 689.7 587.8 689.7C587.8 689.7 371.4 679.4 315.6 681.9C259.8 684.3 154 680.1 154 680.1Z" />
		<path id="Layer" class="shp15" d="M265.9 602.2C297.6 603 433.5 596.8 506.7 602.4C579.9 608.1 639.2 610.9 639.2 610.9C639.2 610.9 453 601 405 603.6C357 606.2 265.9 602.2 265.9 602.2Z" />
		<path id="Layer" class="shp15" d="M338.2 641.9C369.4 641.5 556.4 641.3 627.2 645.4C698.1 649.5 714.1 648.2 714.1 648.2C714.1 648.2 676.4 650 654.1 650C631.9 650.1 338.2 641.9 338.2 641.9Z" />
		<path id="Layer" class="shp15" d="M337.8 671.5C359.5 671.2 524.8 672.7 594 676.9C663.1 681.2 688.7 675.7 688.7 675.7C688.7 675.7 594.1 675.4 553.4 672.3C507.3 668.9 337.8 671.5 337.8 671.5Z" />
		<path id="Layer" class="shp15" d="M355.1 698.5C392 697.5 477 701.2 540.2 699.5C602.1 697.8 713.3 702.9 713.3 702.9C713.3 702.9 597.9 704.2 571.5 703.4C545 702.6 301.1 699.7 301.1 699.7L355.1 698.5Z" />
		<path id="Layer" class="shp15" d="M715.1 583.9C715.1 583.9 587.9 583.3 556.1 581.7C524.2 580.1 717.4 588.6 717.4 588.6L715.1 583.9Z" />
		<path id="Layer" class="shp15" d="M132.8 692.9L258 694.6L133.3 697.3L132.8 692.9Z" />
	</g>
	<g id="Layer">
	</g>
	<g id="Layer">
		<path id="Layer" class="shp18" d="M430.5 585.6C424.42 585.6 419.5 581.35 419.5 576.1C419.5 570.85 424.42 566.6 430.5 566.6C436.58 566.6 441.5 570.85 441.5 576.1C441.5 581.35 436.58 585.6 430.5 585.6Z" />
		<path id="Layer" class="shp19" d="M438.4 581.7C432.32 581.7 427.4 577.45 427.4 572.2C427.4 566.95 432.32 562.7 438.4 562.7C444.48 562.7 449.4 566.95 449.4 572.2C449.4 577.45 444.48 581.7 438.4 581.7Z" />
	</g>
	<path id="Layer" class="shp9" d="M690.8 2260L824.1 2676.3L792.3 3251.4L837.9 2678.4L690.8 2260Z" />
	<path id="Layer" class="shp2" d="M153.5 2803.6L134.5 2773L134.5 2765.6L163 2800.6L177.5 2850.6L163 2850.6L153.5 2803.6Z" />
	<path id="Layer" class="shp20" d="M538.5 2067.9L630.4 2304.6L770.5 2694.6L756.1 3190L790.1 2692.6L639.9 2299.1L538.5 2067.9Z" />
	<path id="Layer" class="shp20" d="M444.5 2313.5L612.1 2445.9L690.8 2737L665.7 2992.8L702.5 2732.5L624.8 2434.9L444.5 2313.5Z" />
	<path id="Layer" class="shp9" d="M597 2274.9L726.4 2725.6L655.3 3258.6L476.2 3710.8L671 3256.1L737.5 2718.9L597 2274.9Z" />
	<path id="Layer" class="shp2" d="M835.9 1607.6C912.4 1674.6 912.4 1674.6 912.4 1674.6L1179.2 1735.6L1161.2 1724.6L933 1662.6L864.5 1592.6L835.9 1607.6Z" />
	<path id="Layer" class="shp9" d="M931.9 1402.3L487.1 1432.1L359.2 1551.1L313.6 1361.1L352.7 1567.1L367.1 1552.4L490.7 1440.6L931.9 1402.3Z" />
	<path id="Layer" class="shp9" d="M770.1 3292.7L556.5 3783.1L505.9 3985.6L573.6 3787.6L770.1 3292.7Z" />
	<path id="Layer" class="shp20" d="M562.5 3430.7L406.3 3777.1L306.1 4006.7L284.1 4351.7L459.6 5069.8L315.6 4348.7L327.6 4012.7" />
	<g id="Layer">
		<g id="Layer">
			<path id="Layer" class="shp18" d="M532.4 1940.1C526.32 1940.1 521.4 1935.85 521.4 1930.6C521.4 1925.35 526.32 1921.1 532.4 1921.1C538.48 1921.1 543.4 1925.35 543.4 1930.6C543.4 1935.85 538.48 1940.1 532.4 1940.1Z" />
			<path id="Layer" class="shp19" d="M540.3 1936.2C534.22 1936.2 529.3 1931.95 529.3 1926.7C529.3 1921.45 534.22 1917.2 540.3 1917.2C546.38 1917.2 551.3 1921.45 551.3 1926.7C551.3 1931.95 546.38 1936.2 540.3 1936.2Z" />
		</g>
		<path id="Layer" class="shp21" d="M543.4 1929.2C540.03 1929.2 537.3 1926.7 537.3 1923.6C537.3 1920.5 540.03 1918 543.4 1918C546.77 1918 549.5 1920.5 549.5 1923.6C549.5 1926.7 546.77 1929.2 543.4 1929.2Z" />
	</g>
	<path id="Layer" class="shp21" d="M441.5 576C438.13 576 435.4 573.5 435.4 570.4C435.4 567.3 438.13 564.8 441.5 564.8C444.87 564.8 447.6 567.3 447.6 570.4C447.6 573.5 444.87 576 441.5 576Z" />
	<g id="Layer">
		<path id="Layer" class="shp0" d="M1339 2801.9C1276.29 2801.9 1225.6 2755.86 1225.6 2698.9C1225.6 2641.94 1276.29 2595.9 1339 2595.9C1401.71 2595.9 1452.4 2641.94 1452.4 2698.9C1452.4 2755.86 1401.71 2801.9 1339 2801.9Z" />
		<path id="Layer" class="shp1" d="M1262.5 3019.2C1180.38 3019.2 1114 2957.83 1114 2881.9C1114 2805.97 1180.38 2744.6 1262.5 2744.6C1344.62 2744.6 1411 2805.97 1411 2881.9C1411 2957.83 1344.62 3019.2 1262.5 3019.2Z" />
		<path id="Layer" class="shp1" d="M1232.6 2725.7C1163.75 2725.7 1108.1 2673.49 1108.1 2608.9C1108.1 2544.31 1163.75 2492.1 1232.6 2492.1C1301.45 2492.1 1357.1 2544.31 1357.1 2608.9C1357.1 2673.49 1301.45 2725.7 1232.6 2725.7Z" />
		<path id="Layer" class="shp2" d="M785.5 3345.4L937.4 3198.4L1007.7 2919.4L1205.5 2725.6L1195.5 2608.9L1182 2595.9L1182 2712.9L975 2900.4L893 3142.7L799.7 3216.4L785.5 3345.4Z" />
		<path id="Layer" class="shp2" d="M1193.7 2680.9L1251.5 2624.9L1271.5 2624.9L1193.7 2706.9L1193.7 2680.9Z" />
		<path id="Layer" class="shp2" d="M1023.5 2895.9L1257.5 2836.9L1257.5 2825.4L1041.8 2864.2L1023.5 2895.9Z" />
		<path id="Layer" class="shp2" d="M1163.2 2860.6L1248.6 2930.7L1271.5 2930.7L1179.5 2848.9L1163.2 2860.6Z" />
		<path id="Layer" class="shp9" d="M984.6 2930.7L923 3169.8L816.7 3284.8L929 3189.8L984.6 2930.7Z" />
	</g>
	<path id="Layer" class="shp22" d="M596.5 3599L442 4038.9L423.3 4360.6L556.9 4782.6L742.4 5274.3L463.6 4365.4L462 4031.6L596.5 3599Z" />
	<path id="Layer" class="shp2" d="M366.8 3536.5L230.5 3389.8L141.5 3250.3L192.4 3109.3L174.9 3115.7L123 3237.3L73 3164.4L39.1 3127.4L208.5 3418.2L298.6 3522.1L116.4 3484.1L129.4 3498.2L312.1 3557.7L333.1 3594.7L377.6 3786L424.1 3681.4L366.8 3536.5Z" />
	<g id="Layer">
		<g id="Layer">
		</g>
	</g>
	<path id="Layer" class="shp23" d="M558.3 3570.6L356.4 4014.9L356.4 4342.6L417.3 4589.4L696.4 5545.5L599.5 6270.7L657.6 6246.1L686.7 5858.9L715.8 5545.4L628.7 5234.9L373.7 4342.6L372 4013.9L558.3 3570.6Z" />
	<path id="Layer" class="shp10" d="M423.3 4769.3L582.4 5471.4L546.5 5956.4L438.4 6246.1L465 6294.8L582.4 5934.4L612.4 5459.4L423.3 4769.3Z" />
	<path id="Layer" class="shp2" d="M1238.6 1576.2L1356.5 1608.6L1356.5 1601.6L1255.2 1564.6L1238.6 1576.2Z" />
	<path id="Layer" class="shp2" d="M1060.7 1708.4L1082.5 1752.6L1158.6 1785L1160.3 1775.6L1094.3 1742L1078.6 1708.4L1060.7 1708.4Z" />
	<g id="Layer">
		<path id="Layer" class="shp24" d="M187 6278.2C168 6251.2 123 6136.8 122 6012.6C121 5892.4 149.2 5825.2 149.2 5825.2L149.2 5818.2C149.2 5818.2 115 5865 115 6037.2C115 6139.2 162 6249.2 174 6272.2C186 6295.2 187 6278.2 187 6278.2Z" />
		<path id="Layer" class="shp24" d="M92 6180C61.4 6171.1 23 6186.4 52 6206.3C81 6226.2 151.6 6218.8 151.6 6218.8C151.6 6218.8 137.3 6193.1 92 6180Z" />
		<path id="Layer" class="shp24" d="M79.3 6107C52.6 6099.2 19.1 6112.5 44.4 6129.9C69.7 6147.3 131.3 6140.8 131.3 6140.8C131.3 6140.8 118.9 6118.5 79.3 6107Z" />
		<path id="Layer" class="shp24" d="M204 6163.3C231.4 6147 272.4 6152.1 249.3 6178.7C226.3 6205.3 156.1 6215.9 156.1 6215.9C156.1 6215.9 163.5 6187.4 204 6163.3Z" />
		<path id="Layer" class="shp24" d="M167.6 6088.5C188 6071.7 222.2 6070.8 206.6 6095.5C191 6120.1 134.9 6137.5 134.9 6137.5C134.9 6137.5 137.4 6113.3 167.6 6088.5Z" />
		<path id="Layer" class="shp24" d="M78.5 6048.4C57.3 6042.3 30.8 6052.8 50.8 6066.6C70.9 6080.4 119.6 6075.2 119.6 6075.2C119.6 6075.2 109.8 6057.5 78.5 6048.4Z" />
		<path id="Layer" class="shp24" d="M152.4 6036C169.9 6022.5 198.4 6022.6 184.8 6042.8C171.2 6063 123.9 6076 123.9 6076C123.9 6076 126.6 6056 152.4 6036Z" />
		<path id="Layer" class="shp24" d="M85.6 5990.1C67.5 5983.2 43.5 5990.5 60.1 6004C76.6 6017.5 119.7 6016.6 119.7 6016.6C119.7 6016.6 112.3 6000.3 85.6 5990.1Z" />
		<path id="Layer" class="shp24" d="M144.7 5983.9C160 5972.1 185.1 5972.2 173.1 5989.9C161.1 6007.6 119.6 6019.1 119.6 6019.1C119.6 6019.1 122 6001.4 144.7 5983.9Z" />
		<path id="Layer" class="shp24" d="M98.2 5936.6C84 5927.5 62.2 5929.5 74 5944C85.8 5958.5 122.7 5965.2 122.7 5965.2C122.7 5965.2 119.2 5950.1 98.2 5936.6Z" />
		<path id="Layer" class="shp24" d="M142.8 5936.4C156.2 5926.1 178 5926.2 167.6 5941.6C157.2 5957 121 5967 121 5967C121 5967 123 5951.7 142.8 5936.4Z" />
		<path id="Layer" class="shp24" d="M105.7 5894.1C95.3 5886.9 79 5887.7 87.3 5898.9C95.7 5910.1 123.1 5916.3 123.1 5916.3C123.1 5916.3 121 5904.9 105.7 5894.1Z" />
		<path id="Layer" class="shp24" d="M145.4 5894.7C156.3 5888.4 172.6 5890.6 163.3 5901C154 5911.4 126.2 5915.3 126.2 5915.3C126.2 5915.3 129.2 5904.1 145.4 5894.7Z" />
	</g>
	<g id="Layer">
		<path id="Layer" class="shp25" d="M533 1312.1C526.3 1304.6 522.3 1297.3 518.3 1314.3C514.3 1331.3 504.3 1348.6 512.3 1372.6C520.3 1396.6 533 1404.6 537 1404.6C541 1404.6 539 1401.6 539 1394.1C539 1386.6 537 1377.3 537 1377.3C537 1377.3 543 1382.6 545 1377.3C547 1372 545.7 1371.3 537 1354.3C528.3 1337.3 533 1312.1 533 1312.1Z" />
		<path id="Layer" class="shp25" d="M639.2 1312.1C645.9 1304.6 649.9 1297.3 653.9 1314.3C657.9 1331.3 667.9 1348.6 659.9 1372.6C651.9 1396.6 639.2 1404.6 635.2 1404.6C631.2 1404.6 633.2 1401.6 633.2 1394.1C633.2 1386.6 635.2 1377.3 635.2 1377.3C635.2 1377.3 629.2 1382.6 627.2 1377.3C625.2 1372 626.5 1371.3 635.2 1354.3C643.8 1337.3 639.2 1312.1 639.2 1312.1Z" />
	</g>
	<g id="Layer">
		<path id="Layer" class="shp25" d="M740.7 1320.7C735.4 1314.8 732.3 1309.1 729.2 1322.4C726.1 1335.7 718.2 1349.3 724.5 1368.2C730.8 1387 740.8 1393.3 743.9 1393.3C747 1393.3 745.5 1390.9 745.5 1385C745.5 1379.1 743.9 1371.8 743.9 1371.8C743.9 1371.8 748.6 1376 750.2 1371.8C751.8 1367.6 750.8 1367.1 743.9 1353.7C737 1340.5 740.7 1320.7 740.7 1320.7Z" />
		<path id="Layer" class="shp25" d="M824.1 1320.7C829.4 1314.8 832.5 1309.1 835.6 1322.4C838.7 1335.7 846.6 1349.3 840.3 1368.2C834 1387 824 1393.3 820.9 1393.3C817.8 1393.3 819.3 1390.9 819.3 1385C819.3 1379.1 820.9 1371.8 820.9 1371.8C820.9 1371.8 816.2 1376 814.6 1371.8C813 1367.6 814 1367.1 820.9 1353.7C827.8 1340.5 824.1 1320.7 824.1 1320.7Z" />
	</g>
	<path id="Layer" class="shp26" d="M572.3 1227.6C565.7 1211.9 556.8 1194.9 562.2 1186.6C567.6 1178.4 569.8 1190.5 571.4 1201.8C573 1213.2 578 1193.1 581.3 1196.1C584.6 1199.1 583.9 1216.2 583.9 1216.2C583.9 1216.2 591.4 1204.2 593.2 1207.9C594.9 1211.7 593.4 1225.4 593.4 1225.4C593.4 1225.4 585.1 1225.5 582.4 1225.5C579.8 1225.8 572.3 1227.6 572.3 1227.6Z" />
	<path id="Layer" class="shp26" d="M772.5 1248.3C769.8 1239 767.9 1223.2 770 1214.7C772.3 1205.4 776.9 1215.4 776.9 1221.4C776.9 1227.4 780.1 1225.2 782.5 1225.7C784.9 1226.2 782.5 1240.8 782.5 1240.8C782.5 1240.8 786.9 1234.1 790.2 1236.1C793.5 1238.1 791.7 1248.2 791.7 1248.2C791.7 1248.2 785.2 1247.7 781.2 1247.5C777.9 1247.1 775.1 1247.6 772.5 1248.3Z" />
	<path id="Layer" class="shp2" d="M370.3 3641.2L250.3 3703.4L250.3 3727.9L385 3672.9L370.3 3641.2Z" />
	<g id="Layer">
		<g id="Layer">
		</g>
	</g>
	<path id="Layer" class="shp20" d="M738.9 2921.6L703.7 3258.6L524.6 3707.6L724.9 3268.4L738.9 2921.6Z" />
	<g id="Layer">
		<path id="Layer" class="shp27" d="M591.95 3651.86C580.74 3690.12 552.24 3715.36 528.2 3708.32C504.16 3701.27 493.79 3664.65 505 3626.38C516.21 3588.12 544.71 3562.88 568.75 3569.93C592.79 3576.97 603.16 3613.6 591.95 3651.86Z" />
	</g>
	<g id="Layer">
		<path id="Layer" class="shp11" d="M699.1 3538.4L495.5 3514.8L510 3481.1L721.8 3497.1L699.1 3538.4Z" />
		<g id="Layer">
			<g id="Layer">
				<g id="Layer">
					<g id="Layer">
						<path id="SVGID_5_" class="shp12" d="M345.2 3325.1L346.6 3335.2L375.9 3340.3L353.8 3338.8L344 3341.1L343.2 3369.2L401.4 3375.5L350.4 3372.2L341.2 3373.9L343.1 3385.9L362.4 3389.1L348 3389L339.7 3389.9L343 3416.1L360.9 3418.7L350.7 3419L342.8 3420L343.4 3425.9L363.4 3429.2L341.4 3430L341.5 3441L354 3444.1L346.1 3444.8L339 3445.4L338.5 3473.2L353.6 3474.5C353.6 3474.5 732 3502.4 828.5 3513.2C924.4 3523.9 927.1 3524.4 927.1 3524.4L939.7 3519.6L934.6 3469.6L919.9 3466.1L939.6 3463.5L940.8 3422.4L914.2 3418.9L936.7 3415.7L936.4 3407.4L916.3 3404L933 3403.2L940 3400.1L940.3 3369.5C940.3 3369.5 546.4 3336.4 474.1 3333C417.7 3330.4 353.2 3323.2 353.2 3323.2L345.2 3325.1Z" />
					</g>
					<g id="Layer">
						<g id="Layer">
							<g id="Layer">
								<g id="Layer">
									<g id="Layer">
										<g id="Layer">
											<g id="Layer">
												<g id="Layer">
													<g id="Layer">
														<g id="Layer">
															<g id="Layer">
																<g id="Layer">
																	<g id="Layer">
																		<g id="Layer">
																			<g id="Layer">
																				<g id="Layer">
																					<g id="Layer">
																						<g id="Layer">
																							<g id="Layer">
																								<g id="Layer">
																									<g id="Layer">
																										<path id="Layer" class="shp14" d="M346 3324.8L345.1 3334.7L417.2 3344.6L344.7 3339.7L342.3 3367.2L515.9 3384.3L340.8 3373L342.4 3385.4L400.6 3392.2L340.7 3388.9L341.6 3415.2L721.3 3450.1L343.4 3418.7L343.5 3425.2L385 3430.7L340.3 3428.9L339.3 3440.5L364.4 3446.2L339 3444L339.8 3469.9C339.8 3469.9 577.2 3487.5 615.9 3491.8C654.7 3496.1 886.5 3515 930.8 3521.5C940.6 3522.9 934.1 3484 934.9 3469.3C934.9 3469.3 745.2 3453.9 745.3 3453C745.6 3450.6 914.6 3462.8 938.4 3464.9C939.9 3465 932.5 3431.9 931.5 3423.3C931.4 3422.2 646.5 3394.2 646.4 3394.2C458.8 3377 914.6 3415.2 939.3 3417.5C941.1 3417.7 942.4 3413.5 943.4 3409.5C943.9 3407.4 871.6 3401.2 871.7 3401.2C891.7 3400.9 951.4 3401.8 951.4 3401.8L943.8 3527.4L321.3 3475.6L324.5 3324.5L346 3324.8Z" />
																										<text id="SOBRE MI " style="transform: matrix(0.997,0.075,-0.075,0.997,411.881,3361.806)" >
																											<tspan x="0" y="93" class="txt28">SOBRE MI</tspan>
																										</text>
																									</g>
																								</g>
																							</g>
																						</g>
																					</g>
																				</g>
																			</g>
																		</g>
																	</g>
																</g>
															</g>
														</g>
													</g>
												</g>
											</g>
										</g>
									</g>
								</g>
							</g>
						</g>
					</g>
				</g>
				<path id="Layer" class="shp15" d="M405 3332.7C405 3332.7 642.4 3352.5 694.6 3357.9C746.8 3363.3 898.1 3375.3 912.2 3376.8C926.3 3378.3 760.8 3366.9 707.8 3362.2C654.8 3357.6 405 3332.7 405 3332.7Z" />
				<path id="Layer" class="shp15" d="M359.8 3345.4C377.4 3348.1 587.1 3367.5 678.1 3376C740.8 3381.9 776.5 3384.2 759.5 3381.9C737 3378.8 623.3 3367.5 359.8 3345.4Z" />
				<path id="Layer" class="shp16" d="M927 3435.4C877.2 3427.3 681.3 3404.7 572 3401C462.7 3397.4 395.9 3395.9 395.9 3395.9C395.9 3395.9 585.3 3403.6 661.8 3411.7C738.3 3419.9 927 3435.4 927 3435.4Z" />
				<path id="Layer" class="shp15" d="M363.1 3404.5C374.7 3405.8 461.7 3415.4 499.1 3417.1C536.5 3418.8 552 3421.2 552 3421.2C552 3421.2 500.8 3418.3 478.8 3417.6C453.8 3416.8 363.1 3404.5 363.1 3404.5Z" />
				<path id="Layer" class="shp16" d="M370.6 3442.3C407.3 3445.9 565.2 3451.4 649.6 3463.4C734 3475.4 802.6 3483.3 802.6 3483.3C802.6 3483.3 587.5 3457.3 531.7 3455.7C475.8 3454.2 370.6 3442.3 370.6 3442.3Z" />
				<path id="Layer" class="shp15" d="M487.8 3372.7C519.4 3375.8 655.4 3379.5 727.9 3390.5C800.5 3401.5 859.5 3408.6 859.5 3408.6C859.5 3408.6 674.5 3385.2 626.4 3384.3C578.4 3383.3 487.8 3372.7 487.8 3372.7Z" />
				<path id="Layer" class="shp29" d="M557.1 3417.6C588.2 3419.5 774.7 3432.9 845.1 3442.2C915.5 3451.4 931.6 3451.3 931.6 3451.3C931.6 3451.3 893.9 3450.4 871.7 3448.8C849.4 3447.1 557.1 3417.6 557.1 3417.6Z" />
				<path id="Layer" class="shp15" d="M554.5 3447.1C576.2 3448.4 741 3461.9 809.6 3471.2C878.2 3480.5 904.1 3476.9 904.1 3476.9C904.1 3476.9 809.8 3469.8 769.4 3463.7C723.7 3456.8 554.5 3447.1 554.5 3447.1Z" />
				<path id="Layer" class="shp15" d="M569.8 3475.2C606.7 3476.8 691.2 3486.8 754.4 3489.7C816.3 3492.5 926.9 3505.7 926.9 3505.7C926.9 3505.7 811.7 3498.6 785.4 3495.9C759.1 3493.2 516 3472.5 516 3472.5L569.8 3475.2Z" />
				<path id="Layer" class="shp15" d="M937.1 3387.1C937.1 3387.1 810.3 3377.2 778.6 3373.3C747 3369.4 939 3392 939 3392L937.1 3387.1Z" />
				<path id="Layer" class="shp15" d="M348.5 3453.5L473.3 3464.3L348.7 3458L348.5 3453.5Z" />
			</g>
			<g id="Layer">
			</g>
			<g id="Layer">
				<path id="Layer" class="shp18" d="M659.3 3375.6C653.22 3375.6 648.3 3371.35 648.3 3366.1C648.3 3360.85 653.22 3356.6 659.3 3356.6C665.38 3356.6 670.3 3360.85 670.3 3366.1C670.3 3371.35 665.38 3375.6 659.3 3375.6Z" />
				<path id="Layer" class="shp19" d="M667.3 3371.7C661.22 3371.7 656.3 3367.45 656.3 3362.2C656.3 3356.95 661.22 3352.7 667.3 3352.7C673.38 3352.7 678.3 3356.95 678.3 3362.2C678.3 3367.45 673.38 3371.7 667.3 3371.7Z" />
			</g>
			<path id="Layer" class="shp21" d="M670.4 3366C667.03 3366 664.3 3363.5 664.3 3360.4C664.3 3357.3 667.03 3354.8 670.4 3354.8C673.77 3354.8 676.5 3357.3 676.5 3360.4C676.5 3363.5 673.77 3366 670.4 3366Z" />
		</g>
	</g>
	<path id="Layer" class="shp26" d="M926.6 1281C925.6 1271.3 935.1 1254 938.7 1254.7C942.3 1255.4 934.2 1267.7 934.9 1267.9C935.6 1268.1 944.3 1263.7 942.9 1267.9C941.5 1272.1 938.6 1280.2 938.6 1280.2L926.6 1281Z" />
	<g id="Layer">
		<path id="Layer" class="shp30" d="M542.4 1415.4L552.8 1418.7C552.8 1418.7 555 1430.7 557.7 1432.2C560.4 1433.7 566.8 1428.7 566.8 1428.7L571 1432.5L577.3 1428.7L580.4 1432.5L587.3 1427.9L591 1421.5C591 1421.5 596.8 1432.3 600.4 1432.5C603.9 1432.7 606.4 1427.9 606.4 1427.9C606.4 1427.9 613.9 1438.3 614.9 1432.5C615.9 1426.7 619.4 1431.7 621.4 1431.7C623.4 1431.7 629.9 1416.6 629.9 1416.6L635.3 1409.8L542.4 1415.4Z" />
		<path id="Layer" class="shp31" d="M578.1 1402.7C581.2 1400.3 583.6 1395.8 585.6 1401.1C587.6 1406.5 588.7 1424 583.2 1426.9C577.7 1429.8 577.9 1413.8 577.9 1413.8C577.9 1413.8 574.8 1432.3 570.9 1426.3C567 1420.3 568.7 1415.8 568.7 1415.8C568.7 1415.8 564.9 1427.6 562.8 1428.5C560.7 1429.4 557 1416.6 556.8 1410.7C556.6 1404.9 560.8 1400.6 562.8 1402.8C564.8 1404.9 567.1 1408.6 567.1 1408.6C567.1 1408.6 567.7 1402.4 569.9 1400.5C572.1 1398.6 578.1 1402.7 578.1 1402.7Z" />
		<path id="Layer" class="shp31" d="M602.6 1402.9C599.3 1400.9 596.4 1396.7 595 1402.2C593.6 1407.8 594.6 1425.3 600.4 1427.6C606.2 1429.9 604.1 1414 604.1 1414C604.1 1414 609.4 1432 612.5 1425.6C615.7 1419.2 613.4 1414.9 613.4 1414.9C613.4 1414.9 618.6 1426.2 620.7 1426.8C622.8 1427.4 625 1414.3 624.5 1408.5C624 1402.7 619.3 1399 617.6 1401.3C615.9 1403.7 614 1407.5 614 1407.5C614 1407.5 612.7 1401.4 610.3 1399.8C608.1 1398.1 602.6 1402.9 602.6 1402.9Z" />
	</g>
	<g id="Layer">
		<path id="Layer" class="shp30" d="M744.2 1403.7L753.2 1406.6C753.2 1406.6 755.1 1417.1 757.4 1418.4C759.7 1419.7 765.4 1415.3 765.4 1415.3L769 1418.6L774.5 1415.3L777.2 1418.6L783.2 1414.6L786.4 1409C786.4 1409 791.5 1418.4 794.6 1418.6C797.7 1418.8 799.9 1414.6 799.9 1414.6C799.9 1414.6 806.4 1423.7 807.3 1418.6C808.2 1413.6 811.2 1417.9 813 1417.9C814.7 1417.9 820.4 1404.8 820.4 1404.8L825.1 1398.9L744.2 1403.7Z" />
		<path id="Layer" class="shp31" d="M775.3 1392.7C778 1390.6 780.1 1386.7 781.8 1391.3C783.5 1395.9 784.5 1411.2 779.7 1413.8C774.9 1416.4 775.1 1402.4 775.1 1402.4C775.1 1402.4 772.4 1418.5 769 1413.3C765.6 1408.1 767.1 1404.1 767.1 1404.1C767.1 1404.1 763.8 1414.4 762 1415.1C760.2 1415.9 757 1404.7 756.8 1399.6C756.6 1394.5 760.3 1390.8 762 1392.7C763.7 1394.6 765.8 1397.7 765.8 1397.7C765.8 1397.7 766.3 1392.3 768.2 1390.6C770.1 1389.2 775.3 1392.7 775.3 1392.7Z" />
		<path id="Layer" class="shp31" d="M796.7 1392.9C793.8 1391.1 791.3 1387.5 790.1 1392.3C788.9 1397.1 789.7 1412.4 794.8 1414.4C799.9 1416.4 798 1402.6 798 1402.6C798 1402.6 802.6 1418.3 805.4 1412.7C808.2 1407.1 806.2 1403.4 806.2 1403.4C806.2 1403.4 810.7 1413.2 812.6 1413.8C814.5 1414.4 816.4 1402.9 815.9 1397.8C815.5 1392.7 811.4 1389.5 809.9 1391.6C808.4 1393.7 806.8 1397 806.8 1397C806.8 1397 805.6 1391.7 803.5 1390.3C801.4 1388.7 796.7 1392.9 796.7 1392.9Z" />
	</g>
	<g id="Layer">
		<path id="Layer" class="shp30" d="M900.7 1393.7L907.9 1396C907.9 1396 909.5 1404.4 911.3 1405.4C913.1 1406.5 917.7 1403 917.7 1403L920.6 1405.6L925 1403L927.1 1405.6L931.9 1402.4L934.5 1397.9C934.5 1397.9 938.6 1405.4 941 1405.6C943.5 1405.8 945.2 1402.4 945.2 1402.4C945.2 1402.4 950.4 1409.6 951.1 1405.6C951.8 1401.6 954.2 1405.1 955.6 1405.1C957 1405.1 961.5 1394.6 961.5 1394.6L965.3 1389.9L900.7 1393.7Z" />
		<path id="Layer" class="shp31" d="M925.5 1384.9C927.6 1383.2 929.3 1380.1 930.7 1383.8C932.1 1387.5 932.9 1399.7 929 1401.8C925.2 1403.8 925.3 1392.7 925.3 1392.7C925.3 1392.7 923.1 1405.6 920.4 1401.4C917.7 1397.3 918.9 1394.1 918.9 1394.1C918.9 1394.1 916.3 1402.3 914.8 1402.9C913.4 1403.5 910.8 1394.6 910.6 1390.5C910.5 1386.4 913.4 1383.5 914.8 1385C916.2 1386.5 917.8 1389 917.8 1389C917.8 1389 918.2 1384.7 919.7 1383.4C921.4 1382 925.5 1384.9 925.5 1384.9Z" />
		<path id="Layer" class="shp31" d="M942.7 1385C940.4 1383.6 938.3 1380.7 937.4 1384.5C936.5 1388.4 937.1 1400.6 941.2 1402.1C945.3 1403.7 943.8 1392.7 943.8 1392.7C943.8 1392.7 947.5 1405.2 949.7 1400.8C951.9 1396.4 950.4 1393.3 950.4 1393.3C950.4 1393.3 954 1401.1 955.5 1401.6C957 1402 958.5 1392.9 958.2 1388.8C957.8 1384.8 954.6 1382.2 953.4 1383.8C952.2 1385.4 950.9 1388.1 950.9 1388.1C950.9 1388.1 950 1383.9 948.3 1382.7C946.4 1381.7 942.7 1385 942.7 1385Z" />
	</g>
	<g id="Layer">
		<path id="Layer" class="shp25" d="M902.2 1338.9C898.3 1334.5 896 1330.2 893.7 1340.2C891.4 1350.2 885.6 1360.4 890.2 1374.5C894.9 1388.6 902.3 1393.3 904.6 1393.3C906.9 1393.3 905.8 1391.5 905.8 1387.1C905.8 1382.7 904.6 1377.2 904.6 1377.2C904.6 1377.2 908.1 1380.3 909.2 1377.2C910.4 1374.1 909.6 1373.7 904.6 1363.7C899.4 1353.7 902.2 1338.9 902.2 1338.9Z" />
		<path id="Layer" class="shp25" d="M963.9 1338.9C967.8 1334.5 970.1 1330.2 972.4 1340.2C974.7 1350.2 980.5 1360.4 975.9 1374.5C971.2 1388.6 963.9 1393.3 961.5 1393.3C959.2 1393.3 960.3 1391.5 960.3 1387.1C960.3 1382.7 961.5 1377.2 961.5 1377.2C961.5 1377.2 958 1380.3 956.9 1377.2C955.7 1374.1 956.5 1373.7 961.5 1363.7C966.6 1353.7 963.9 1338.9 963.9 1338.9Z" />
	</g>
	<path id="Layer" class="shp32" d="M533.2 1288.4C535 1295.9 533.7 1314.7 545.7 1319.4C557.7 1324.1 570.9 1315.7 570.9 1315.7C570.9 1315.7 582.4 1336 585.6 1338C588.8 1340 600.2 1319.4 600.2 1319.4C600.2 1319.4 612.2 1325.9 620.2 1322C628.2 1318.1 633.1 1303.2 635.1 1292.1C637.3 1281.1 533.2 1288.4 533.2 1288.4Z" />
	<g id="Layer">
		<path id="Layer" class="shp33" d="M610.5 1312C596.84 1312 585.8 1299.17 585.8 1283.3C585.8 1267.43 596.84 1254.6 610.5 1254.6C624.16 1254.6 635.2 1267.43 635.2 1283.3C635.2 1299.17 624.16 1312 610.5 1312Z" />
		<path id="Layer" class="shp34" d="M603.9 1287.4C596.71 1287.4 590.9 1280.78 590.9 1272.6C590.9 1264.42 596.71 1257.8 603.9 1257.8C611.09 1257.8 616.9 1264.42 616.9 1272.6C616.9 1280.78 611.09 1287.4 603.9 1287.4Z" />
		<path id="Layer" class="shp33" d="M557.6 1312.1C543.94 1312.1 532.9 1299.27 532.9 1283.4C532.9 1267.53 543.94 1254.7 557.6 1254.7C571.26 1254.7 582.3 1267.53 582.3 1283.4C582.3 1299.27 571.26 1312.1 557.6 1312.1Z" />
		<path id="Layer" class="shp34" d="M550 1287.4C542.81 1287.4 537 1280.78 537 1272.6C537 1264.42 542.81 1257.8 550 1257.8C557.19 1257.8 563 1264.42 563 1272.6C563 1280.78 557.19 1287.4 550 1287.4Z" />
	</g>
	<path id="Layer" class="shp31" d="M600.2 1304.9C600.5 1299.6 597.4 1295.6 589 1287C581.8 1279.6 568.8 1303.4 571.1 1307.3C578.5 1319.8 580.8 1325.2 584.6 1329.2C588.5 1333.3 599.9 1312.2 600.2 1304.9Z" />
	<path id="Layer" class="shp32" d="M743.2 1291.6C744.6 1297.5 741.1 1315.3 752.5 1321C761.5 1325.6 770 1322.7 770 1322.7C770 1322.7 780.3 1340.2 786.3 1340.3C791.8 1340.4 799.3 1323.8 799.3 1323.8C799.3 1323.8 806.3 1324.2 812.6 1321.1C818.9 1318 823.4 1309.2 823.3 1298C823.3 1289.1 743.2 1291.6 743.2 1291.6Z" />
	<g id="Layer">
		<path id="Layer" class="shp33" d="M762.9 1314.7C752.01 1314.7 743.2 1304.37 743.2 1291.6C743.2 1278.83 752.01 1268.5 762.9 1268.5C773.79 1268.5 782.6 1278.83 782.6 1291.6C782.6 1304.37 773.79 1314.7 762.9 1314.7Z" />
		<path id="Layer" class="shp33" d="M804.3 1314.3C793.41 1314.3 784.6 1303.97 784.6 1291.2C784.6 1278.43 793.41 1268.1 804.3 1268.1C815.19 1268.1 824 1278.43 824 1291.2C824 1303.97 815.19 1314.3 804.3 1314.3Z" />
		<path id="Layer" class="shp34" d="M762.9 1291.2C757.15 1291.2 752.5 1286.24 752.5 1280.1C752.5 1273.96 757.15 1269 762.9 1269C768.65 1269 773.3 1273.96 773.3 1280.1C773.3 1286.24 768.65 1291.2 762.9 1291.2Z" />
		<path id="Layer" class="shp34" d="M804.3 1291.2C798.55 1291.2 793.9 1286.24 793.9 1280.1C793.9 1273.96 798.55 1269 804.3 1269C810.05 1269 814.7 1273.96 814.7 1280.1C814.7 1286.24 810.05 1291.2 804.3 1291.2Z" />
		<path id="Layer" class="shp31" d="M799.3 1311.3C799.6 1306 796.5 1302 788.1 1293.5C780.8 1286.1 768 1310 770.3 1313.9C777.7 1326.4 780.1 1331.7 783.9 1335.8C787.7 1339.7 799 1318.5 799.3 1311.3Z" />
	</g>
	<path id="Layer" class="shp32" d="M904.5 1322.6C904.3 1324.6 903 1336.4 910.8 1340.3C917 1343.4 919.2 1343.7 919.2 1343.7C919.2 1343.7 927.7 1360.1 933.1 1360.1C938 1360.1 947.6 1344 947.6 1344C947.6 1344 949.3 1343.8 953.6 1341.6C957.9 1339.5 962.4 1331.2 961.7 1323.1C961.1 1317.1 904.5 1322.6 904.5 1322.6Z" />
	<g id="Layer">
		<path id="Layer" class="shp33" d="M918.7 1334.1C910.74 1334.1 904.3 1327.13 904.3 1318.5C904.3 1309.87 910.74 1302.9 918.7 1302.9C926.66 1302.9 933.1 1309.87 933.1 1318.5C933.1 1327.13 926.66 1334.1 918.7 1334.1Z" />
		<path id="Layer" class="shp33" d="M947.7 1334.1C939.63 1334.1 933.1 1327.13 933.1 1318.5C933.1 1309.87 939.63 1302.9 947.7 1302.9C955.77 1302.9 962.3 1309.87 962.3 1318.5C962.3 1327.13 955.77 1334.1 947.7 1334.1Z" />
		<path id="Layer" class="shp34" d="M918.7 1327.8C914.33 1327.8 910.8 1323.64 910.8 1318.5C910.8 1313.36 914.33 1309.2 918.7 1309.2C923.07 1309.2 926.6 1313.36 926.6 1318.5C926.6 1323.64 923.07 1327.8 918.7 1327.8Z" />
		<path id="Layer" class="shp34" d="M947.7 1327.8C942.72 1327.8 938.7 1323.64 938.7 1318.5C938.7 1313.36 942.72 1309.2 947.7 1309.2C952.68 1309.2 956.7 1313.36 956.7 1318.5C956.7 1323.64 952.68 1327.8 947.7 1327.8Z" />
		<path id="Layer" class="shp31" d="M946.3 1337.1C946.7 1332.9 944.3 1331 936.3 1324.8C929.4 1319.4 917.8 1335.3 920 1338.1C923.7 1345.3 928.8 1352.6 932.4 1355.5C936.3 1355.6 945.7 1342.8 946.3 1337.1Z" />
	</g>
	<g id="Layer">
		<path id="Layer" class="shp24" d="M1105.7 6315.4C1114.5 6298.6 1148.8 6218.1 1148.8 6143.5C1148.8 6017.5 1123.8 5983.3 1123.8 5983.3L1123.8 5988.4C1123.8 5988.4 1144.4 6037.5 1143.7 6125.5C1143 6216.4 1110.1 6300 1096.2 6319.8C1096.2 6319.8 1096.9 6332.3 1105.7 6315.4Z" />
		<path id="Layer" class="shp24" d="M1122.1 6276.4C1122.1 6276.4 1173.7 6281.8 1194.9 6267.3C1216.1 6252.7 1188 6241.6 1165.6 6248.1C1132.5 6257.6 1122.1 6276.4 1122.1 6276.4Z" />
		<path id="Layer" class="shp24" d="M1136.9 6219.4C1136.9 6219.4 1181.9 6224.1 1200.4 6211.4C1218.9 6198.7 1194.4 6189 1174.9 6194.6C1146 6203 1136.9 6219.4 1136.9 6219.4Z" />
		<path id="Layer" class="shp24" d="M1118.7 6274.2C1118.7 6274.2 1067.4 6266.4 1050.5 6247C1033.6 6227.5 1063.6 6223.8 1083.7 6235.8C1113.4 6253.4 1118.7 6274.2 1118.7 6274.2Z" />
		<path id="Layer" class="shp24" d="M1134.3 6216.9C1134.3 6216.9 1093.2 6204.2 1081.8 6186.2C1070.4 6168.2 1095.4 6168.8 1110.4 6181.1C1132.5 6199.3 1134.3 6216.9 1134.3 6216.9Z" />
		<path id="Layer" class="shp24" d="M1145.4 6171.4C1145.4 6171.4 1181.1 6175.2 1195.8 6165.1C1210.5 6155 1191.1 6147.3 1175.6 6151.8C1152.6 6158.4 1145.4 6171.4 1145.4 6171.4Z" />
		<path id="Layer" class="shp24" d="M1142.3 6172C1142.3 6172 1107.7 6162.4 1097.7 6147.7C1087.7 6132.9 1108.6 6132.9 1121.4 6142.7C1140.4 6157.3 1142.3 6172 1142.3 6172Z" />
		<path id="Layer" class="shp24" d="M1145.4 6128.4C1145.4 6128.4 1176.9 6129.1 1189 6119.2C1201.1 6109.3 1183.6 6104 1170.3 6109C1150.8 6116.6 1145.4 6128.4 1145.4 6128.4Z" />
		<path id="Layer" class="shp24" d="M1145.4 6130.3C1145.4 6130.3 1115 6121.9 1106.3 6109C1097.6 6096.1 1115.9 6096 1127.1 6104.6C1143.7 6117.4 1145.4 6130.3 1145.4 6130.3Z" />
		<path id="Layer" class="shp24" d="M1143.3 6090.9C1143.3 6090.9 1170.3 6086 1178.9 6075.4C1187.5 6064.8 1171.6 6063.4 1161.2 6070C1145.7 6079.8 1143.3 6090.9 1143.3 6090.9Z" />
		<path id="Layer" class="shp24" d="M1144.4 6092.3C1144.4 6092.3 1117.9 6085 1110.3 6073.7C1102.7 6062.4 1118.7 6062.3 1128.4 6069.9C1143 6081 1144.4 6092.3 1144.4 6092.3Z" />
		<path id="Layer" class="shp24" d="M1142.9 6055.1C1142.9 6055.1 1163 6050.6 1169.1 6042.4C1175.2 6034.2 1163.2 6033.6 1155.7 6038.9C1144.4 6046.8 1142.9 6055.1 1142.9 6055.1Z" />
		<path id="Layer" class="shp24" d="M1140.7 6054.4C1140.7 6054.4 1120.3 6051.6 1113.5 6043.9C1106.7 6036.3 1118.6 6034.7 1126.6 6039.3C1138.5 6046.2 1140.7 6054.4 1140.7 6054.4Z" />
	</g>
	<path id="Layer" class="shp35" d="M609.2 4987.8L699.6 5322.1L775 5602.9L742.5 6277.3L819.1 6337.6L805.6 5602.9L721 5322.1L609.2 4987.8Z" />
	<g id="Layer">
		<path id="Layer" class="shp36" d="M628.7 5750.9C644.1 5750.8 659.2 5746.2 672.6 5740.5C672.8 5739.2 672.7 5738.1 672.7 5736.9" />
		<path id="Layer" class="shp36" d="M644.7 5804.9C657.6 5796.8 671.5 5786.1 686.7 5791.9" />
		<path id="Layer" class="shp36" d="M652.7 5746.9C649.9 5751.7 658.1 5765.7 659.7 5772.1C661.4 5779.2 663.6 5787.4 662.7 5794.9" />
		<path id="Layer" class="shp36" d="M683.9 5904.9C683.3 5898.5 704.7 5885.5 711 5880.2C719.1 5873.3 722.8 5866 721.8 5854.9C720.9 5845.1 716.5 5832.2 707.8 5827C693.8 5818.7 681.4 5836.1 679.2 5847.9C679.2 5847.9 670.1 5834.4 657.6 5835.4C636.6 5837 632.3 5869.4 644.8 5882.4C657.3 5895.4 683.9 5904.9 683.9 5904.9Z" />
		<path id="Layer" class="shp36" d="M639.7 5942.9C631.4 5941 621.1 5940.7 617.1 5949.9C615.1 5954.5 613 5961.9 613.2 5966.9C613.4 5973.1 617.6 5979.3 623 5982.4C627.2 5984.8 638.4 5980.2 642.7 5978.4" />
		<path id="Layer" class="shp36" d="M652.7 5983.4C659.5 5966.7 657.2 5933.2 662.7 5931.6C665.7 5930.7 671.2 5962.1 677.1 5974.4C677.9 5976.1 686.7 5995.3 688.7 5992.4" />
		<path id="Layer" class="shp36" d="M650.7 5967.9C662.3 5970.4 675.5 5966.9 687.2 5966.9" />
		<path id="Layer" class="shp36" d="M712.2 5936.9C711.9 5942.6 714.4 5948.4 715.7 5953.9C717.7 5961.9 718.6 5970 719.3 5978.1" />
		<path id="Layer" class="shp36" d="M690.7 5938.4C700.9 5939.4 703.6 5936 713.4 5933.5C723.4 5930.9 727.8 5927.6 738.1 5927.9" />
		<path id="Layer" class="shp36" d="M769.5 5936.9C747.9 5927.9 738.1 5945 743.3 5956.8C750.8 5957.9 773 5956.5 776.1 5965.4C781.7 5981.5 742.2 5978.1 743.1 5978.2" />
	</g>
	<path id="Layer" class="shp20" d="M432.2 5055.2L517.9 5517.4L415 5938.6L276.1 6300.1L298.6 6287.6L452 5949.9L538.3 5520L432.2 5055.2Z" />
	<path id="Layer" class="shp2" d="M109.4 4198L152.1 4322.3L279.3 4397.5L284.3 4478.4L139.5 4332.3L87.7 4186.3L109.4 4198Z" />
	<path id="Layer" class="shp2" d="M123.9 4240.3L154.6 4192.1L133.2 4103.2L141.3 4102L170 4200.4L129 4274.5L123.9 4240.3Z" />
	<g id="Layer">
		<path id="Layer" class="shp0" d="M1364 4959.4C1305.33 4959.4 1257.9 4912.38 1257.9 4854.2C1257.9 4796.02 1305.33 4749 1364 4749C1422.67 4749 1470.1 4796.02 1470.1 4854.2C1470.1 4912.38 1422.67 4959.4 1364 4959.4Z" />
		<path id="Layer" class="shp1" d="M982.7 4651.3C913.8 4651.3 858.1 4594.98 858.1 4525.3C858.1 4455.62 913.8 4399.3 982.7 4399.3C1051.6 4399.3 1107.3 4455.62 1107.3 4525.3C1107.3 4594.98 1051.6 4651.3 982.7 4651.3Z" />
		<path id="Layer" class="shp1" d="M1323.7 4678.8C1234.45 4678.8 1162.3 4607.28 1162.3 4518.8C1162.3 4430.32 1234.45 4358.8 1323.7 4358.8C1412.95 4358.8 1485.1 4430.32 1485.1 4518.8C1485.1 4607.28 1412.95 4678.8 1323.7 4678.8Z" />
		<path id="Layer" class="shp2" d="M1350 4553.5L1291.3 4613.7L1282 4498.9L1273 4513.3L1274.3 4633.7L1214.3 4692.7L1121.3 4792.7L1114.7 4679.6L1048.6 4583.4L994.6 4468.5L994.6 4505.4L1032 4588.9L935.2 4549.9L941.5 4566.9L1038.1 4610.4L1085.5 4697.6L1078.1 4784.6L1078.1 4784.6L941.5 5131L805.6 5237.4L842.1 5408.6L1013.8 5218.3L1114.7 4841.7L1231.3 4702.1L1290.3 4638.7L1353.3 4570.9L1350 4553.5Z" />
		<path id="Layer" class="shp23" d="M1069.7 4939.1L977.5 5197.6L813.3 5352.9L870.3 5617.3L889.9 5907.9L922.1 6320L955.6 6317.9L912 5630.5L833.8 5369.6L993.3 5211.6L1069.7 4939.1Z" />
		<path id="Layer" class="shp20" d="M811.6 5265.4L955.6 5142.9L1086.2 4791.3L1095.2 4702.1L1099.7 4803.7L969.1 5156.4L813.3 5307.5L811.6 5265.4Z" />
		<path id="Layer" class="shp2" d="M1059.2 5048.9L1212.2 4971.9L1330.6 4920.7L1379 4845.9L1365.1 4845.9L1323.7 4905L1199.9 4939.1L1059.2 4989.9L1059.2 5048.9Z" />
	</g>
	<path id="Layer" class="shp2" d="M966.9 3634.8L1036.4 3576.3L1051.9 3576.3L990.7 3641.2L966.9 3634.8Z" />
	<path id="Layer" class="shp2" d="M492.7 4154.8L629.8 4056.8L791.6 3795.2L932 3660.9L1149.8 3658.9L1405.8 3582.9L1369.8 3582.9L1138 3634.8L917.1 3634.8L771.4 3746.4L599.1 3938.8L538.6 3954.8L492.7 4154.8Z" />
	<g id="Layer">
		<g id="Layer">
		</g>
	</g>
	<path id="Layer" class="shp10" d="M530 3981.2L507 4045.6L606 3975.9L780.6 3767.7L847.6 3701.1L772.2 3754.1L606 3950.1L530 3981.2Z" />
	<path id="Layer" class="shp2" d="M725.6 3898.9L847.6 3878.1L847.6 3962.2L867.8 3962.2L867.8 3878.1L920 3832.7L1051.9 3904.5L1065.6 3896.2L935.8 3816.5L994.3 3767.7L1255.6 3776.1L1255.6 3767.7L983.6 3739.1L847.6 3839.1L757.2 3843.3L725.6 3898.9Z" />
	<path id="Layer" class="shp20" d="M748.9 3865.6L851 3860.6L949.3 3792.1L854.9 3871.7L740.6 3886.1L748.9 3865.6Z" />
	<path id="Layer" class="shp11" d="M723.4 2053.3L642.6 2065L666.4 2038.8L739.1 2031.3L723.4 2053.3Z" />
	<path id="Layer" class="shp2" d="" />
	<path id="Layer" class="shp2" d="M816.3 2603.6L897.1 2304.2L1050.4 2232L1229.7 2299.6L1256.4 2415.4L1179.4 2512.6L1068.4 2494L1044.2 2408.8L1086.5 2364.7L1142.2 2384.7L1148.9 2372.7L1077.8 2336.7L1020.1 2402.8L1044.1 2521.1L1191 2550.1L1286.7 2433.7L1256.8 2274.1L1050.4 2190.6L863.3 2264.7L781.8 2520.7L816.3 2603.6Z" />
	<path id="Layer" class="shp2" d="M983.9 2217L991.6 2161.6L999 2161.6L996.4 2219.1L983.9 2217Z" />
	<path id="Layer" class="shp2" d="M1138.3 2241.6L1203 2183.6L1208.3 2190.4L1159 2241.6L1138.3 2241.6Z" />
	<path id="Layer" class="shp2" d="M1261.6 2352.3L1313.6 2342.1L1313.6 2352.3L1267 2368.3L1261.6 2352.3Z" />
	<path id="Layer" class="shp11" d="M769.9 5094.3L407.9 5104L393 5044.6L756.1 5035.6L769.9 5094.3Z" />
	<path id="Layer" class="shp11" d="M765.2 5406.1L464 5421.1L459.6 5362.4L746.6 5346.9L765.2 5406.1Z" />
	<g id="Layer">
		<g id="Layer">
			<path id="SVGID_17_" class="shp12" d="M309.5 5233.6L316.6 5227L765 5218L772.2 5248L750.7 5254.9L771.2 5253.7L772.2 5299.9L760.6 5305.3L773.6 5313.6L767.7 5339.7L775 5375.9C775 5375.9 414 5384.3 379.6 5393.5C345.2 5402.8 317.4 5394.8 317.4 5394.8L312.2 5358.3L337.5 5351.7L312 5348.6L311.8 5338.9L323.5 5333.3L392.2 5328.7L311.5 5326L310.7 5289.5L321.1 5282.7L373.4 5275.1L313.8 5275L309.5 5233.6Z" />
			<text id="JAVASCRIPT " style="transform: matrix(1,0,0,1,333,5267)" >
				<tspan x="0" y="74" class="txt37">JAVASCRIPT</tspan>
			</text>
		</g>
		<g id="Layer">
			<g id="Layer">
				<g id="Layer">
					<g id="Layer">
						<g id="Layer">
							<g id="Layer">
								<g id="Layer">
									<g id="Layer">
										<g id="Layer">
											<g id="Layer">
												<g id="Layer">
													<g id="Layer">
														<g id="Layer">
															<g id="Layer">
																<g id="Layer">
																	<g id="Layer">
																		<path id="Layer" class="shp14" d="M314.01 5226.66L318.96 5267.97L367.66 5277.63L312.72 5282.26L317.17 5318.74L384.88 5327.32L313.81 5331.56L314.11 5343.58L364.19 5350.38L314.4 5354.23L322.42 5385.88C322.42 5385.88 333.41 5388.44 372.71 5384.89C412.01 5381.24 776.19 5369.02 776.19 5369.02L771.94 5308.68L690.57 5312.82L769.56 5299.71L768.67 5257.42L697.59 5253.58L766.79 5245.2L795 5401.94L295.4 5412L295 5224L314.01 5226.66Z" />
																	</g>
																</g>
															</g>
														</g>
													</g>
												</g>
											</g>
										</g>
									</g>
								</g>
							</g>
						</g>
					</g>
				</g>
			</g>
		</g>
	</g>
	<path id="Layer" class="shp15" d="M427.4 5327.1C427.4 5327.1 532.2 5331 574.9 5327.1C617.6 5323.2 625 5324 625 5324C625 5324 568.3 5333.3 545.3 5334.9C522.3 5336.4 427.4 5327.1 427.4 5327.1Z" />
	<g id="Layer">
		<g id="Layer">
			<g id="Layer">
				<path id="SVGID_19_" class="shp12" d="M362 5513.77L367.52 5508.52L719.29 5496.4L725.32 5519.93L708.55 5525.58L724.6 5524.37L725.93 5560.82L716.93 5565.17L727.26 5571.63L722.86 5592.33L729 5620.8C729 5620.8 445.85 5631.41 418.96 5639.08C392.06 5646.75 370.18 5640.8 370.18 5640.8L365.68 5612.12L385.52 5606.67L365.48 5604.55L365.17 5596.87L374.27 5592.33L428.16 5587.89L364.76 5586.67L363.74 5557.89L371.82 5552.44L412.82 5545.88L365.99 5546.48L362 5513.77Z" />
				<text id="REACT " style="transform: matrix(0.998,-0.059,0.059,0.998,414.409,5531.585)" >
					<tspan x="0" y="74" class="txt37">REACT</tspan>
				</text>
			</g>
			<g id="Layer">
				<g id="Layer">
					<g id="Layer">
						<g id="Layer">
							<g id="Layer">
								<g id="Layer">
									<g id="Layer">
										<g id="Layer">
											<g id="Layer">
												<g id="Layer">
													<g id="Layer">
														<g id="Layer">
															<g id="Layer">
																<g id="Layer">
																	<g id="Layer">
																		<g id="Layer">
																			<path id="Layer" class="shp14" d="M374.2 5504.5L378.5 5537.2L416.3 5544.3L373.8 5548.6L377.6 5577.4L439.1 5586.1L375.1 5587.6L375.4 5597.1L409.6 5598.1L375.6 5605.5L382.1 5630.5C382.1 5630.5 390.7 5632.4 421.1 5629.1C451.5 5625.8 733.7 5612 733.7 5612L729.8 5564.2L666.8 5568.4L727.9 5557.1L726.7 5523.6L671.6 5521.3L725.1 5513.9L748.7 5637.8L361.5 5651.3L359.1 5502.3L374.2 5504.5Z" />
																		</g>
																	</g>
																</g>
															</g>
														</g>
													</g>
												</g>
											</g>
										</g>
									</g>
								</g>
							</g>
						</g>
					</g>
				</g>
			</g>
		</g>
		<path id="Layer" class="shp11" d="M717.3 5653.4L434.3 5680.5L446.1 5628.1L712.4 5611.2L717.3 5653.4Z" />
		<path id="Layer" class="shp15" d="M376.9 5526.2L716 5503.7C716 5503.7 559.6 5521.2 535.1 5523.5C510.6 5525.8 376.9 5526.2 376.9 5526.2Z" />
		<path id="Layer" class="shp15" d="M396 5619.4C396 5619.4 520.2 5601 540.6 5603C564.5 5605.4 624 5604.7 624 5604.7C624 5604.7 532.1 5608.2 514.8 5610.9C497.4 5613.6 396 5619.4 396 5619.4Z" />
		<path id="Layer" class="shp15" d="M372.7 5572.1L371.4 5562.5C371.4 5562.5 616.3 5550.9 634.8 5551.1C653.3 5551.3 703.2 5549.9 703.2 5549.9C703.2 5549.9 502.3 5566.3 485 5567.2C467.7 5568.1 372.7 5572.1 372.7 5572.1Z" />
		<path id="Layer" class="shp15" d="M717.3 5582.8C717.3 5582.8 503 5580.3 467.1 5585.3C431.2 5590.4 659 5585.2 675.7 5586.8C692.4 5588.4 716.1 5588.7 716.1 5588.7L717.3 5582.8Z" />
		<path id="Layer" class="shp15" d="M454.4 5538.3C454.4 5538.3 659.2 5534.1 677.5 5530.7C695.7 5527.3 524.6 5538.7 496.6 5541.6C468.6 5544.5 412.3 5545.4 412.3 5545.4L454.4 5538.3Z" />
	</g>
	<path id="Layer" class="shp38" d="M436.9 5532.3C437.1 5540.7 429.9 5547.7 420.9 5547.8C411.9 5548 404.5 5541.3 404.3 5532.8C404.1 5524.4 411.3 5517.4 420.3 5517.3C429.3 5517.2 436.7 5523.9 436.9 5532.3Z" />
	<path id="Layer" class="shp38" d="M676.3 5525.4C676.5 5533.3 669.3 5539.8 660.1 5540C651 5540.1 643.4 5533.8 643.2 5525.9C643 5518 650.2 5511.5 659.3 5511.3C668.6 5511.1 676.1 5517.4 676.3 5525.4Z" />
	<path id="Layer" class="shp15" d="M340.1 5244.2L730.9 5225.8C730.9 5225.8 550.5 5242.2 522.2 5244.2C493.9 5246.2 340.1 5244.2 340.1 5244.2Z" />
	<path id="Layer" class="shp39" d="M783.3 3785.3L630.2 4003.9L492.6 4087L496.9 4399L776.1 5202.9L511.1 4388.5L504.9 4101L637.7 4013.9L783.3 3785.3Z" />
	<path id="Layer" class="shp15" d="M318.3 5286L628.7 5274.3L319.1 5291.7L318.3 5286Z" />
	<path id="Layer" class="shp15" d="M340.1 5357.8L730.9 5339.4C730.9 5339.4 550.5 5355.8 522.2 5357.8C493.9 5359.9 340.1 5357.8 340.1 5357.8Z" />
	<path id="Layer" class="shp15" d="M757.5 5268.9L565 5291.7L722.9 5283L757.8 5280.3L757.5 5268.9Z" />
	<path id="Layer" class="shp38" d="M415.3 5381.1C406.7 5381.3 399.6 5374.3 399.4 5365.6C399.2 5356.9 406.1 5349.7 414.7 5349.5C423.3 5349.3 430.4 5356.3 430.6 5365C430.7 5373.8 423.9 5381 415.3 5381.1Z" />
	<path id="Layer" class="shp38" d="M659.79 5374.2C650.89 5374.37 643.56 5367.49 643.39 5358.81C643.23 5350.13 650.29 5342.98 659.19 5342.81C668.09 5342.64 675.42 5349.52 675.59 5358.2C675.75 5366.88 668.69 5374.03 659.79 5374.2Z" />
	<g id="Layer">
		<g id="Layer">
			<path id="SVGID_6_" class="shp40" d="M407.9 5370.5C407.9 5364.2 414.1 5364.2 419.4 5367.6C421.8 5369.1 427 5512.1 426.7 5527.1C426.4 5542.1 414 5536.4 414.1 5528.5C414.2 5520.6 407.9 5370.5 407.9 5370.5Z" />
		</g>
		<g id="Layer">
			<g id="Layer">
				<g id="Layer">
					<g id="Layer">
						<g id="Layer">
							<g id="Layer">
								<g id="Layer">
									<g id="Layer">
										<g id="Layer">
											<g id="Layer">
												<g id="Layer">
													<g id="Layer">
														<g id="Layer">
															<g id="Layer">
																<g id="Layer">
																	<path id="Layer" class="shp41" d="M397 5373.8L439.2 5385.7L436.9 5399.3L399.4 5391L398 5403.9L436.3 5412.1L436.3 5428.5L398 5421.1L398 5436L439.2 5447.2L439.2 5467.3L398 5454.4L398 5473.2L444.4 5485L444.4 5503.8L399.9 5494.2L399.7 5514.4L445.8 5522.7" />
																</g>
															</g>
														</g>
													</g>
												</g>
											</g>
										</g>
									</g>
								</g>
							</g>
						</g>
					</g>
				</g>
			</g>
		</g>
	</g>
	<g id="Layer">
		<g id="Layer">
			<path id="SVGID_7_" class="shp40" d="M652.3 5365.3C652.5 5359.3 658.6 5359.4 663.9 5362.7C666.3 5364.2 668 5502.3 667.3 5516.8C666.6 5531.2 654.3 5525.5 654.6 5517.9C654.8 5510.3 652.3 5365.3 652.3 5365.3Z" />
		</g>
		<g id="Layer">
			<g id="Layer">
				<g id="Layer">
					<g id="Layer">
						<g id="Layer">
							<g id="Layer">
								<g id="Layer">
									<g id="Layer">
										<g id="Layer">
											<g id="Layer">
												<g id="Layer">
													<g id="Layer">
														<g id="Layer">
															<g id="Layer">
																<g id="Layer">
																	<path id="Layer" class="shp41" d="M642.2 5366.9L683.1 5381.3L679.9 5391.3L641.9 5380.5L641.4 5398L679.5 5406.6L679.1 5422.4L641 5414.5L640.7 5428.8L681.6 5440.4L681.1 5459.6L640.3 5444.5L639.8 5464.6L685.9 5476.7L685.5 5494.8L639.5 5484L640.4 5504.1L686.4 5513" />
																</g>
															</g>
														</g>
													</g>
												</g>
											</g>
										</g>
									</g>
								</g>
							</g>
						</g>
					</g>
				</g>
			</g>
		</g>
	</g>
	<path id="Layer" class="shp15" d="M443.2 5260.6L742.4 5252.7L598.7 5260.6L443.2 5260.6Z" />
	<g id="Layer">
	</g>
	<g id="Layer">
	</g>
	<path id="Layer" class="shp10" d="M299.2 3486.8L340.2 3533.3L402.5 3711.3L413.5 3686.8L350 3533.3L299.2 3486.8Z" />
	<g id="Layer">
		<path id="Layer" class="shp1" d="M507.8 6234.7C505.9 6231.4 504.7 6229.5 504.7 6229.5C504.7 6229.5 505.9 6231.5 507.8 6234.7Z" />
		<path id="Layer" class="shp1" d="M750.6 6199.9C748.5 6182.9 748.8 6198.5 749.5 6221.6C750.9 6213.6 751.4 6206.2 750.6 6199.9Z" />
		<path id="Layer" class="shp1" d="M778.1 6121.7C777.9 6118.4 777.6 6115.1 777.3 6111.9C775.8 6096.2 776.4 6103.1 778.1 6121.7Z" />
		<path id="Layer" class="shp1" d="M1538.4 6506.1C1443.6 6498 1307.8 6404.9 1086 6325.5C1050.3 6271.2 1076.4 6179.3 1062.1 6212C1044.7 6251.6 1065.6 6316.7 1044 6311C1043.4 6310.8 1042.8 6310.6 1042.2 6310.4L1042.2 6310.4C1017.7 6300.5 1000.8 6180.2 995.2 6194.5C990.4 6206.7 1006.9 6302.2 968.9 6287.8C899.9 6239.4 1040.7 6001.1 967.3 6127.5C923.2 6203.5 925.7 6254.2 928.8 6276.8C898.2 6235.8 901.8 6163.8 893.7 6184.7C884.8 6207.8 892.6 6299 874.8 6231.1C857 6163.1 912.7 6082.5 874.8 6139.6C836.9 6196.8 829.1 6266 820.2 6231.1C805.5 6173.6 877.1 6057.2 843.6 6102.3C810.1 6147.4 784.5 6229.8 787.9 6216.6C790.3 6207 778.6 6076.6 774.2 6027.4C779.7 6115.5 745.6 6217 747 6199.6C747.8 6190 746.4 6153.7 745.5 6127.3C741.1 6153.5 727.4 6185.7 719.3 6203.4C707 6107.2 644 5921.8 681.9 6056.1C725.4 6210 667.4 6254 675.3 6223.2C683.2 6192.4 600.5 6073.7 611.7 6097.9C622.8 6122.1 667.4 6254 624.5 6227.6C581.6 6201.2 560.4 6075.9 558.8 6133.1C557.6 6174.9 579.3 6216.6 582.4 6231.8C578.3 6231.9 574.1 6233.6 570.3 6232.3C544.5 6223.5 514.5 6157.9 503.9 6140.4C513.3 6156.3 518.1 6236 503.7 6237.6C426.4 6176.3 492.4 5992.6 457.6 6071.5C430.8 6132 452.7 6213.2 459.1 6243.6C456.6 6244 454 6244.4 451.5 6244.8C435.9 6216.1 416.6 6148 424.7 6177C430.3 6197 430.6 6255.6 406.2 6253.2C401.5 6217.8 358.4 6098.2 373.6 6141.8C389.7 6188 386.5 6229.1 373.6 6254.2C372.1 6257.1 366.7 6262.2 363.6 6263C357.9 6152.4 230.6 5964 268.3 6036.3C299.6 6096.4 317.8 6237 322.2 6274.2C321.4 6274.4 320.6 6274.7 319.9 6274.9C310.6 6251.5 286 6189.6 295.1 6216.6C306.2 6249.6 280.9 6283.5 280.9 6283.5C280.9 6283.5 230.5 6146.3 246.1 6198.1C255.4 6228.9 250.5 6277.7 244.2 6300.8C240.8 6302.1 237.4 6303.5 234 6304.8C233.7 6302.9 233.5 6300.6 233.3 6297.9C229.4 6242.9 165.9 6161.6 190.4 6198.1C214.9 6234.6 210.5 6328.7 202.8 6315.5C195.1 6302.3 153.6 6247.3 153.6 6247.3C153.6 6247.3 182.6 6315.2 172.9 6331.8C170.4 6333 168 6334.2 165.6 6335.4C162.5 6335.2 158.6 6333.8 153.6 6330.8C105.7 6302.2 121.3 6159.3 113.8 6238.5C109.6 6283 132.3 6326.2 142.7 6347.6C139.4 6349.5 136.1 6351.3 132.9 6353.1C131.1 6351.7 129 6350.2 126.8 6348.5C69.9 6304.5 85.5 6113.2 76.5 6198.1C67.4 6283 103.1 6348.5 103.1 6348.5L58.3 6306.7C58.3 6306.7 103.4 6383.7 78.4 6368.3C53.4 6352.9 38.3 6306.7 38.3 6306.7C38.3 6306.7 15.6 6373.2 44.1 6427.1C77.1 6489.5 164.8 6449.3 256.4 6437C482.3 6446 565.3 6447 959.3 6488C1268.2 6555.2 1667.8 6517.1 1538.4 6506.1Z" />
	</g>
	<g id="Layer">
	</g>
	<path id="Layer" class="shp2" d="M1023.5 2864.1L1003.8 2765.6L1013.7 2744.6L1051.9 2850.6L1023.5 2864.1Z" />
	<g id="Layer">
		<g id="Layer">
		</g>
	</g>
	<path id="Layer" class="shp20" d="M468.3 1802.9L362 1586.6L489 1468.9L739.9 1586.6L496.9 1485.9L382 1586.6L468.3 1802.9Z" />
	<path id="Layer" class="shp20" d="M608.6 3284L622.3 3248.5L500.3 3056.5L608.6 3284Z" />
	<path id="Layer" class="shp20" d="M816.7 2557L802.1 2523.3L877.6 2285.5L1023.5 2228.5L883.6 2299.1L816.7 2557Z" />
	<g id="Layer">
		<g id="Layer">
			<g id="Layer">
				<g id="Layer">
					<path id="SVGID_2_" class="shp12" d="M198.5 4875.3L201.4 4887.2L234.3 4889.6L209.7 4890.5L199.2 4894.4L202.1 4928.1L267.1 4928.4L210.5 4930.8L200.6 4934L204.3 4948.1L226 4949.5L210.1 4951.1L201.1 4953.2L208.2 4984.1L228.3 4985L217.1 4986.6L208.6 4988.7L210.1 4995.6L232.5 4997.1L208.4 5000.7L210 5013.8L224.2 5016L215.6 5017.8L207.8 5019.4L210.9 5052.7L227.7 5052.4C227.7 5052.4 648.1 5038.8 755.9 5039.6C862.9 5040.5 866 5040.7 866 5040.7L879.2 5033.4L866.9 4974.3L850.2 4971.9L871.5 4966.4L867.3 4917.2L837.5 4916.3L861.9 4909.6L860.5 4899.8L837.9 4898.2L856.2 4895.2L863.5 4890.7L859.7 4854.1C859.7 4854.1 421.5 4863.4 341.4 4868.4C278.9 4872.3 207 4871.7 207 4871.7L198.5 4875.3Z" />
					<text id="DESARROLLO " style="transform: matrix(0.999,-0.037,0.037,0.999,230.967,4915.688)" >
						<tspan x="0" y="93" class="txt28">DESARROLLO</tspan>
					</text>
				</g>
				<g id="Layer">
					<g id="Layer">
						<g id="Layer">
							<g id="Layer">
								<g id="Layer">
									<g id="Layer">
										<g id="Layer">
											<g id="Layer">
												<g id="Layer">
													<g id="Layer">
														<g id="Layer">
															<g id="Layer">
																<g id="Layer">
																	<g id="Layer">
																		<g id="Layer">
																			<g id="Layer">
																				<g id="Layer">
																					<g id="Layer">
																						<g id="Layer">
																							<g id="Layer">
																								<g id="Layer">
																									<path id="Layer" class="shp14" d="M196.8 4867.6L197.6 4881.9L280.2 4888.4L199.7 4891.6L200.8 4924.7L394.3 4923.6L200 4931.8L203.4 4946.4L268.5 4947.3L202.1 4950.8L206.7 4982.1L629.6 4976.6L209.2 4986L210.2 4993.7L256.7 4995.1L207.3 4998.5L207.8 5012.5L236.2 5016.2L207.9 5016.7L212.3 5047.6C212.3 5047.6 476.1 5039.2 519.3 5039.4C562.6 5039.7 820.4 5033.6 870 5035.8C881 5036.3 868.6 4990.6 867.4 4972.9C867.4 4972.9 656.5 4978 656.5 4977C656.5 4974 844.3 4967.7 870.7 4967.2C872.4 4967.2 859.8 4928.5 857.5 4918.3C857.2 4917 539.7 4918.9 539.7 4918.9C330.8 4921.7 837.9 4910.6 865.4 4910.4C867.4 4910.4 868.3 4905.3 868.8 4900.3C869.1 4897.7 788.6 4899.3 788.7 4899.2C810.7 4896.4 876.5 4890.1 876.5 4890.1L885.1 5041.1L192.6 5056.5L175.7 4875.6L196.8 4867.6Z" />
																								</g>
																							</g>
																						</g>
																					</g>
																				</g>
																			</g>
																		</g>
																	</g>
																</g>
															</g>
														</g>
													</g>
												</g>
											</g>
										</g>
									</g>
								</g>
							</g>
						</g>
					</g>
				</g>
			</g>
			<path id="Layer" class="shp15" d="M265.4 4876.9C265.4 4876.9 529.5 4871 587.7 4871C645.9 4871 814.1 4866.5 829.8 4866.6C845.5 4866.7 661.7 4873.5 602.7 4874.6C543.8 4875.7 265.4 4876.9 265.4 4876.9Z" />
			<path id="Layer" class="shp15" d="M217.3 4897.7C237 4898.7 470.5 4895.9 572 4894.8C641.9 4894 681.4 4892.4 662.4 4891.7C637.2 4890.7 510.4 4891.4 217.3 4897.7Z" />
			<path id="Layer" class="shp16" d="M854.1 4934.8C798.1 4931.3 579.4 4928.6 458.5 4937.8C337.7 4947 263.9 4953.6 263.9 4953.6C263.9 4953.6 473.5 4939.3 558.8 4939.5C644.2 4939.7 854.1 4934.8 854.1 4934.8Z" />
			<path id="Layer" class="shp15" d="M229 4967.9C242 4968 339.1 4968.7 380.4 4966.1C421.8 4963.5 439.2 4964.4 439.2 4964.4C439.2 4964.4 382.5 4967.3 358.1 4969.1C330.4 4971.3 229 4967.9 229 4967.9Z" />
			<path id="Layer" class="shp16" d="M242.2 5012.1C283.1 5011.8 457.7 4998.8 552.3 5002.7C646.9 5006.6 723.4 5007.5 723.4 5007.5C723.4 5007.5 483.1 5003.1 421.4 5008.1C359.7 5013.2 242.2 5012.1 242.2 5012.1Z" />
			<path id="Layer" class="shp15" d="M362 4914.4C397.2 4914.2 547.4 4901.7 628.8 4905.8C710.2 4909.9 776.1 4911.1 776.1 4911.1C776.1 4911.1 569.3 4906.1 516.2 4911C463.1 4915.9 362 4914.4 362 4914.4Z" />
			<path id="Layer" class="shp15" d="M444.3 4959.5C478.9 4957.9 686 4950.8 764.7 4953.1C843.4 4955.4 861.2 4953.2 861.2 4953.2C861.2 4953.2 819.6 4956.8 794.8 4957.6C770.1 4958.5 444.3 4959.5 444.3 4959.5Z" />
			<path id="Layer" class="shp15" d="M445.4 4995C469.4 4993.8 652.7 4989.5 729.6 4992.1C806.4 4994.7 834.5 4987.1 834.5 4987.1C834.5 4987.1 729.7 4990.3 684.4 4988C633.1 4985.6 445.4 4995 445.4 4995Z" />
			<path id="Layer" class="shp15" d="M466.1 5026.7C506.9 5024.1 601.4 5025.5 671.3 5021.1C739.8 5016.8 863.4 5018.8 863.4 5018.8C863.4 5018.8 735.6 5024.6 706.3 5024.7C676.9 5024.8 406.5 5030.2 406.5 5030.2L466.1 5026.7Z" />
			<path id="Layer" class="shp15" d="M858.7 4875.9C858.7 4875.9 717.8 4879.9 682.3 4879.1C646.9 4878.3 861.4 4881.4 861.4 4881.4L858.7 4875.9Z" />
			<path id="Layer" class="shp15" d="M219.5 5028.2L358.3 5025.7L220.2 5033.6L219.5 5028.2Z" />
		</g>
		<g id="Layer">
			<path id="Layer" class="shp18" d="M522.9 4889.9C516.82 4889.9 511.9 4885.65 511.9 4880.4C511.9 4875.15 516.82 4870.9 522.9 4870.9C528.98 4870.9 533.9 4875.15 533.9 4880.4C533.9 4885.65 528.98 4889.9 522.9 4889.9Z" />
			<path id="Layer" class="shp19" d="M530.8 4886C524.72 4886 519.8 4881.75 519.8 4876.5C519.8 4871.25 524.72 4867 530.8 4867C536.88 4867 541.8 4871.25 541.8 4876.5C541.8 4881.75 536.88 4886 530.8 4886Z" />
		</g>
		<path id="Layer" class="shp21" d="M533.9 4881.3C530.53 4881.3 527.8 4878.8 527.8 4875.7C527.8 4872.6 530.53 4870.1 533.9 4870.1C537.27 4870.1 540 4872.6 540 4875.7C540 4878.8 537.27 4881.3 533.9 4881.3Z" />
		<g id="Layer">
		</g>
	</g>
	<path id="Layer" class="shp2" d="M634.9 4662.4L609.1 4585.3L719.4 4562L768.4 4436.7L719.4 4285.2L730.8 4274.5L768.4 4380.8L802.5 4302.8L821 4280.9L776.1 4392.9L788.2 4436.7L730.8 4585.3L634.9 4662.4Z" />
	<g id="Layer">
		<path id="Layer" class="shp42" d="M1045.6 6206.6C1057.6 6183.3 1079.4 6029.7 1063.7 5969.6" />
		<path id="Layer" class="shp43" d="M1036 5968.8C1041.8 5971.3 1071.3 5976 1082.2 5956.4C1093.1 5936.8 1092.3 5918.9 1088.1 5904.9C1083.9 5890.9 1079.3 5869.2 1070.7 5872C1063.5 5874.4 1057.5 5904.9 1057.5 5904.9C1057.5 5904.9 1036.7 5885.7 1029.7 5887.6C1023.4 5889.3 1023 5917.9 1023 5917.9C1023 5917.9 1006.3 5900.5 1001 5904.9C993.6 5911.2 1007 5956.4 1036 5968.8Z" />
	</g>
	<g id="Layer">
		<path id="Layer" class="shp42" d="M1288.2 6317.8C1300.2 6294.5 1322 6140.9 1306.3 6080.8" />
		<path id="Layer" class="shp43" d="M1278.6 6080.1C1284.4 6082.6 1313.9 6087.3 1324.8 6067.7C1335.7 6048.1 1334.9 6030.2 1330.7 6016.2C1326.5 6002.2 1321.9 5980.5 1313.3 5983.3C1306.1 5985.7 1300.1 6016.2 1300.1 6016.2C1300.1 6016.2 1279.3 5997 1272.3 5998.9C1266 6000.6 1265.6 6029.2 1265.6 6029.2C1265.6 6029.2 1248.9 6011.8 1243.6 6016.2C1236.1 6022.4 1249.6 6067.7 1278.6 6080.1Z" />
	</g>
	<path id="Layer" class="shp9" d="M514 3733.2L437.5 3925.9L401 4045.6L401 4274.5L417 4045.6L455.7 3910.9L514 3733.2Z" />
	<path id="Layer" class="shp9" d="M163.8 4341.9L289 4456.2L334.1 4702.1L279 4460.9L163.8 4341.9Z" />
	<g id="Layer">
		<path id="Layer" class="shp38" d="M403.9 5259.5C394.5 5259.5 386.9 5252.75 386.9 5244.4C386.9 5236.05 394.5 5229.3 403.9 5229.3C413.3 5229.3 420.9 5236.05 420.9 5244.4C420.9 5252.75 413.3 5259.5 403.9 5259.5Z" />
		<path id="Layer" class="shp38" d="M666.7 5257.3C657.63 5257.3 650.3 5250.24 650.3 5241.5C650.3 5232.76 657.63 5225.7 666.7 5225.7C675.77 5225.7 683.1 5232.76 683.1 5241.5C683.1 5250.24 675.77 5257.3 666.7 5257.3Z" />
		<path id="Layer" class="shp38" d="M661.4 5031.4C652.5 5031.4 645.3 5025.54 645.3 5018.3C645.3 5011.06 652.5 5005.2 661.4 5005.2C670.3 5005.2 677.5 5011.06 677.5 5018.3C677.5 5025.54 670.3 5031.4 661.4 5031.4Z" />
		<path id="Layer" class="shp38" d="M395.3 5032.7C386.4 5032.7 379.2 5026.75 379.2 5019.4C379.2 5012.05 386.4 5006.1 395.3 5006.1C404.2 5006.1 411.4 5012.05 411.4 5019.4C411.4 5026.75 404.2 5032.7 395.3 5032.7Z" />
		<g id="Layer">
			<g id="Layer">
				<path id="SVGID_23_" class="shp40" d="M389.1 5023.2C389.1 5014.8 395.3 5014.8 400.6 5019.3C403 5021.3 408.2 5213.1 407.9 5233.2C407.6 5253.3 395.2 5245.6 395.3 5235.1C395.4 5224.5 389.1 5023.2 389.1 5023.2Z" />
			</g>
			<g id="Layer">
				<g id="Layer">
					<g id="Layer">
						<g id="Layer">
							<g id="Layer">
								<g id="Layer">
									<g id="Layer">
										<g id="Layer">
											<g id="Layer">
												<g id="Layer">
													<g id="Layer">
														<g id="Layer">
															<g id="Layer">
																<g id="Layer">
																	<g id="Layer">
																		<path id="Layer" class="shp41" d="M374 5018.3L420.9 5032.6L417.3 5050.8L379.2 5038.9L379.2 5058.9L417.3 5069.8L415 5090.4L379.2 5077.4L379.2 5099.9L417.3 5112.9L417.1 5131L379.2 5116.9L379.2 5137.4L417.3 5150.4L420.9 5175.4L379.2 5160.9L379.2 5183.4L426.1 5196.4L426.7 5215.4L379.2 5203.4L380.9 5223.6L427 5234.9" />
																	</g>
																</g>
															</g>
														</g>
													</g>
												</g>
											</g>
										</g>
									</g>
								</g>
							</g>
						</g>
					</g>
				</g>
			</g>
		</g>
		<g id="Layer">
			<g id="Layer">
				<path id="SVGID_25_" class="shp40" d="M653.9 5023.2C653.9 5014.8 660.1 5014.8 665.4 5019.2C667.8 5021.2 673 5213.1 672.7 5233.2C672.4 5253.3 660 5245.6 660.1 5235.1C660.2 5224.6 653.9 5023.2 653.9 5023.2Z" />
			</g>
			<g id="Layer">
				<g id="Layer">
					<g id="Layer">
						<g id="Layer">
							<g id="Layer">
								<g id="Layer">
									<g id="Layer">
										<g id="Layer">
											<g id="Layer">
												<g id="Layer">
													<g id="Layer">
														<g id="Layer">
															<g id="Layer">
																<g id="Layer">
																	<g id="Layer">
																		<path id="Layer" class="shp41" d="M643.6 5022.5L680.2 5037.5L683.1 5055.2L644.8 5040.9L645.3 5059.9L683.1 5072.7L681.6 5090.9L647.2 5075.4L645.9 5097.6L681.6 5113.2L683.1 5134.8L643.7 5115.2L645.3 5137.9L686.3 5153.4L687.4 5176.4L645.3 5158.9L645.3 5181.4L690.2 5198.9L690 5217.9L644.7 5201.4L645.7 5220.7L692 5235.4" />
																	</g>
																</g>
															</g>
														</g>
													</g>
												</g>
											</g>
										</g>
									</g>
								</g>
							</g>
						</g>
					</g>
				</g>
			</g>
		</g>
	</g>
	<path id="Layer" class="shp2" d="M1084.8 298.8L1159.8 289.7L1159.8 278.3L1084.8 278.3L1084.8 298.8Z" />
	<path id="Layer" class="shp2" d="M845 457L1054.3 564.8L1255.4 499.7L1255.4 486.2L1058.9 543.2L881.6 444.7L845 457Z" />
	<path id="Layer" class="shp0" d="M217.7 402.6C163.06 402.6 118.9 360.58 118.9 308.6C118.9 256.62 163.06 214.6 217.7 214.6C272.34 214.6 316.5 256.62 316.5 308.6C316.5 360.58 272.34 402.6 217.7 402.6Z" />
	<path id="Layer" class="shp0" d="M1238.6 585.6C1183.96 585.6 1139.8 543.58 1139.8 491.6C1139.8 439.62 1183.96 397.6 1238.6 397.6C1293.24 397.6 1337.4 439.62 1337.4 491.6C1337.4 543.58 1293.24 585.6 1238.6 585.6Z" />
</svg>