<svg xmlns="http://www.w3.org/2000/svg" viewBox="0 0 1540 755" width="1540" height="755">
	<style>
		tspan { white-space:pre }
		.shp0 { fill: #9da52b } 
		.shp1 { fill: #547f0f } 
		.shp2 { fill: #c0d13c } 
		.shp3 { fill: none;stroke: #996e36;stroke-width: 4 } 
		.shp4 { fill: #f90b61 } 
	</style>
	<g id="Layer">
		<path id="Layer" class="shp0" d="M1672.38 760.76C1606.43 754.2 1512.14 681.53 1357.92 619.17C1333.23 576.94 1351.75 505.61 1341.62 530.98C1329.43 561.66 1343.67 612.27 1328.74 607.77C1328.34 607.57 1327.94 607.47 1327.44 607.28L1327.44 607.28C1310.38 599.49 1299.05 506.07 1295.03 517.09C1291.69 526.62 1302.79 600.74 1276.41 589.42C1228.56 551.64 1327.32 367.07 1275.78 464.92C1244.77 523.83 1246.44 563.12 1248.45 580.71C1227.24 548.75 1230.06 492.83 1224.37 509.07C1218.09 527.01 1223.27 597.88 1211.01 545.06C1198.76 492.24 1237.84 429.78 1211.34 474.06C1184.73 518.34 1179.09 572.08 1173.01 544.92C1163.01 500.28 1213.2 410.04 1189.74 445C1166.27 479.86 1148.2 543.88 1150.53 533.57C1152.28 526.15 1144.5 424.81 1141.54 386.62C1145.11 455 1121.04 533.77 1122.04 520.26C1122.59 512.75 1121.8 484.56 1121.27 464.06C1118.1 484.38 1108.47 509.35 1102.76 523.09C1094.56 448.34 1051.19 304.23 1077.19 408.56C1107 528.16 1066.43 562.13 1072.06 538.3C1077.7 514.46 1020.48 422.04 1028.21 440.79C1035.93 459.64 1066.53 562.13 1036.69 541.53C1006.85 520.93 992.59 423.53 991.19 467.94C990.21 500.35 1005.13 532.85 1007.31 544.63C1004.51 544.75 1001.51 545.97 998.91 544.99C980.96 538.11 960.32 487.05 953.03 473.5C959.51 485.85 962.63 547.73 952.63 549C899.01 501.16 945.55 358.74 921.06 419.91C902.28 466.84 917.21 529.94 921.56 553.51C919.77 553.82 918.07 554.13 916.27 554.45C905.52 532.12 892.26 479.21 897.81 501.77C901.62 517.34 901.63 562.84 884.71 560.86C881.53 533.38 852 440.38 862.43 474.31C873.47 510.23 871.19 542.15 862.02 561.51C860.93 563.82 857.16 567.74 854.96 568.26C851.38 482.38 763.39 335.67 789.37 392C810.99 438.75 823.22 547.97 826.12 576.85C825.62 577.06 825.02 577.16 824.52 577.36C818.1 559.11 801.18 511.02 807.42 531.98C815.09 557.63 797.27 583.85 797.27 583.85C797.27 583.85 762.65 477.18 773.32 517.51C779.68 541.46 776.13 579.39 771.65 597.22C769.26 598.24 766.87 599.25 764.58 600.27C764.37 598.77 764.25 596.97 764.14 594.97C761.55 552.29 717.62 488.88 734.62 517.27C751.61 545.65 748.2 618.78 742.83 608.51C737.56 598.25 708.77 555.44 708.77 555.44C708.77 555.44 728.73 608.21 721.91 621.16C720.22 622.07 718.53 622.98 716.83 623.99C714.73 623.8 711.93 622.72 708.51 620.35C675.26 597.97 686.51 487.09 681.12 548.53C678.06 583.05 693.68 616.65 700.9 633.3C698.61 634.71 696.32 636.13 694.02 637.54C692.72 636.45 691.31 635.26 689.8 633.87C650.37 599.54 661.87 451.06 655.21 516.9C648.65 582.75 673.2 633.78 673.2 633.78L642.18 601.19C642.18 601.19 673.38 661.08 655.9 649C638.52 637.02 628.18 601.09 628.18 601.09C628.18 601.09 612.12 652.6 631.81 694.56C654.63 743.11 713.67 777.81 777.41 768.59C983.21 738.7 998.09 706.3 1264.95 772.4C1480.21 825.95 1762.44 769.65 1672.38 760.76Z" />
		<path id="Layer copy" class="shp0" d="M1035.2 846.37C969.3 837.52 875.5 744.92 721.7 664.82C697.3 611.25 716.3 521.29 706 553.26C693.6 591.92 707.5 655.97 692.6 650.16C692.2 649.91 691.8 649.78 691.3 649.53L691.3 649.53C674.3 639.55 663.6 521.42 659.5 535.32C656.1 547.32 666.7 641.06 640.4 626.54C592.8 578.4 692.8 346.06 640.6 469.24C609.2 543.4 610.6 593.06 612.5 615.29C591.5 574.74 594.7 504.11 588.9 524.58C582.5 547.19 587.2 636.77 575.3 569.94C563.4 503.1 602.9 424.52 576.1 480.23C549.2 535.95 543.2 603.79 537.3 569.43C527.6 512.96 578.4 399.38 554.7 443.34C531 487.18 512.5 567.91 514.9 554.9C516.7 545.55 509.6 417.44 506.9 369.18C510 455.6 485.4 554.9 486.5 537.85C487.1 528.37 486.5 492.74 486.1 466.84C482.8 492.49 473 523.95 467.2 541.26C459.5 446.75 417.1 264.32 442.4 396.34C471.4 547.7 430.6 590.28 436.4 560.21C442.2 530.14 385.6 412.9 393.2 436.65C400.8 460.53 430.7 590.28 401 564C371.3 537.72 357.7 414.54 356 470.63C354.8 511.57 369.5 552.75 371.6 567.66C368.8 567.79 365.8 569.3 363.2 568.04C345.3 559.2 325 494.51 317.8 477.33C324.2 492.99 326.9 571.2 316.9 572.72C263.6 511.82 311.1 332.29 286.2 409.36C267.1 468.48 281.6 548.33 285.8 578.15C284 578.53 282.3 578.91 280.5 579.28C269.9 550.98 257 484.02 262.4 512.58C266.1 532.29 265.8 589.77 248.9 587.12C245.9 552.37 217 434.63 227.2 477.58C238 523.06 235.5 563.37 226.2 587.75C225.1 590.66 221.3 595.58 219.1 596.21C216.1 487.69 129.1 301.59 154.7 372.97C176 432.23 187.5 570.31 190.2 606.83C189.7 607.08 189.1 607.21 188.6 607.46C182.3 584.34 165.7 523.44 171.8 549.97C179.3 582.44 161.3 615.42 161.3 615.42C161.3 615.42 127.4 480.36 137.8 531.4C144 561.72 140.2 609.61 135.6 632.09C133.2 633.36 130.8 634.62 128.5 635.88C128.3 633.99 128.2 631.72 128.1 629.19C125.8 575.24 82.3 494.76 99.1 530.77C115.9 566.78 112 659.13 106.7 646.12C101.5 633.11 73 578.78 73 578.78C73 578.78 92.6 645.61 85.7 661.91C84 663.05 82.3 664.19 80.6 665.45C78.5 665.2 75.7 663.81 72.3 660.77C39.2 632.22 51.2 492.24 45.4 569.81C42.1 613.4 57.5 655.97 64.6 677.07C62.3 678.84 60 680.61 57.7 682.38C56.4 680.99 55 679.47 53.5 677.7C14.3 633.99 26.8 446.5 19.7 529.63C12.7 612.76 36.9 677.45 36.9 677.45L6.1 636.01C6.1 636.01 36.9 711.94 19.5 696.53C2.2 681.24 -7.9 635.76 -7.9 635.76C-7.9 635.76 -24.3 700.7 -4.9 753.89C17.6 815.41 76.4 859.76 140.2 848.64C346.2 812.63 361.3 771.83 627.7 857.61C842.6 927.1 1125.2 858.37 1035.2 846.37Z" />
		<path id="Layer copy 2" class="shp0" d="M1338.2 807.37C1272.3 798.52 1178.5 705.92 1024.7 625.82C1000.3 572.25 1019.3 482.29 1009 514.26C996.6 552.92 1010.5 616.97 995.6 611.16C995.2 610.91 994.8 610.78 994.3 610.53L994.3 610.53C977.3 600.55 966.6 482.42 962.5 496.32C959.1 508.32 969.7 602.06 943.4 587.54C895.8 539.4 995.8 307.06 943.6 430.24C912.2 504.4 913.6 554.06 915.5 576.29C894.5 535.74 897.7 465.11 891.9 485.58C885.5 508.19 890.2 597.77 878.3 530.94C866.4 464.1 905.9 385.52 879.1 441.23C852.2 496.95 846.2 564.79 840.3 530.43C830.6 473.96 881.4 360.38 857.7 404.34C834 448.18 815.5 528.91 817.9 515.9C819.7 506.55 812.6 378.44 809.9 330.18C813 416.6 788.4 515.9 789.5 498.85C790.1 489.37 789.5 453.74 789.1 427.84C785.8 453.49 776 484.95 770.2 502.26C762.5 407.75 720.1 225.32 745.4 357.34C774.4 508.7 733.6 551.28 739.4 521.21C745.2 491.14 688.6 373.9 696.2 397.65C703.8 421.53 733.7 551.28 704 525C674.3 498.72 660.7 375.54 659 431.63C657.8 472.57 672.5 513.75 674.6 528.66C671.8 528.79 668.8 530.3 666.2 529.04C648.3 520.2 628 455.51 620.8 438.33C627.2 453.99 629.9 532.2 619.9 533.72C566.6 472.82 614.1 293.29 589.2 370.36C570.1 429.48 584.6 509.33 588.8 539.15C587 539.53 585.3 539.91 583.5 540.28C572.9 511.98 560 445.02 565.4 473.58C569.1 493.29 568.8 550.77 551.9 548.12C548.9 513.37 520 395.63 530.2 438.58C541 484.06 538.5 524.37 529.2 548.75C528.1 551.66 524.3 556.58 522.1 557.21C519.1 448.69 432.1 262.59 457.7 333.97C479 393.23 490.5 531.31 493.2 567.83C492.7 568.08 492.1 568.21 491.6 568.46C485.3 545.34 468.7 484.44 474.8 510.97C482.3 543.44 464.3 576.42 464.3 576.42C464.3 576.42 430.4 441.36 440.8 492.4C447 522.72 443.2 570.61 438.6 593.09C436.2 594.36 433.8 595.62 431.5 596.88C431.3 594.99 431.2 592.72 431.1 590.19C428.8 536.24 385.3 455.76 402.1 491.77C418.9 527.78 415 620.13 409.7 607.12C404.5 594.11 376 539.78 376 539.78C376 539.78 395.6 606.61 388.7 622.91C387 624.05 385.3 625.19 383.6 626.45C381.5 626.2 378.7 624.81 375.3 621.77C342.2 593.22 354.2 453.24 348.4 530.81C345.1 574.4 360.5 616.97 367.6 638.07C365.3 639.84 363 641.61 360.7 643.38C359.4 641.99 358 640.47 356.5 638.7C317.3 594.99 329.8 407.5 322.7 490.63C315.7 573.76 339.9 638.45 339.9 638.45L309.1 597.01C309.1 597.01 339.9 672.94 322.5 657.53C305.2 642.24 295.1 596.76 295.1 596.76C295.1 596.76 278.7 661.7 298.1 714.89C320.6 776.41 379.4 820.76 443.2 809.64C649.2 773.63 664.3 732.83 930.7 818.61C1145.6 888.1 1428.2 819.37 1338.2 807.37Z" />
	</g>
	<g id="Layer" style="opacity: 0.502">
	</g>
	<g id="Layer">
	</g>
	<g id="Layer">
	</g>
	<g id="Layer">
	</g>
	<g id="Layer">
		<g id="Layer">
		</g>
	</g>
	<g id="Layer">
	</g>
	<g id="Layer">
		<g id="Layer">
		</g>
	</g>
	<g id="Layer">
		<path id="Layer" class="shp1" d="M242 620.2C223 593.2 178 478.8 177 354.6C176 234.4 204.2 167.2 204.2 167.2L204.2 160.2C204.2 160.2 170 207 170 379.2C170 481.2 217 591.2 229 614.2C241 637.2 242 620.2 242 620.2Z" />
		<path id="Layer" class="shp1" d="M147 522C116.4 513.1 78 528.4 107 548.3C136 568.2 206.6 560.8 206.6 560.8C206.6 560.8 192.3 535.1 147 522Z" />
		<path id="Layer" class="shp1" d="M134.3 449C107.6 441.2 74.1 454.5 99.4 471.9C124.7 489.3 186.3 482.8 186.3 482.8C186.3 482.8 173.9 460.5 134.3 449Z" />
		<path id="Layer" class="shp1" d="M259 505.3C286.4 489 327.4 494.1 304.3 520.7C281.3 547.3 211.1 557.9 211.1 557.9C211.1 557.9 218.5 529.4 259 505.3Z" />
		<path id="Layer" class="shp1" d="M222.6 430.5C243 413.7 277.2 412.8 261.6 437.5C246 462.1 189.9 479.5 189.9 479.5C189.9 479.5 192.4 455.3 222.6 430.5Z" />
		<path id="Layer" class="shp1" d="M133.5 390.4C112.3 384.3 85.8 394.8 105.8 408.6C125.9 422.4 174.6 417.2 174.6 417.2C174.6 417.2 164.8 399.5 133.5 390.4Z" />
		<path id="Layer" class="shp1" d="M207.4 378C224.9 364.5 253.4 364.6 239.8 384.8C226.2 405 178.9 418 178.9 418C178.9 418 181.6 398 207.4 378Z" />
		<path id="Layer" class="shp1" d="M140.6 332.1C122.5 325.2 98.5 332.5 115.1 346C131.6 359.5 174.7 358.6 174.7 358.6C174.7 358.6 167.3 342.3 140.6 332.1Z" />
		<path id="Layer" class="shp1" d="M199.7 325.9C215 314.1 240.1 314.2 228.1 331.9C216.1 349.6 174.6 361.1 174.6 361.1C174.6 361.1 177 343.4 199.7 325.9Z" />
		<path id="Layer" class="shp1" d="M153.2 278.6C139 269.5 117.2 271.5 129 286C140.8 300.5 177.7 307.2 177.7 307.2C177.7 307.2 174.2 292.1 153.2 278.6Z" />
		<path id="Layer" class="shp1" d="M197.8 278.4C211.2 268.1 233 268.2 222.6 283.6C212.2 299 176 309 176 309C176 309 178 293.7 197.8 278.4Z" />
		<path id="Layer" class="shp1" d="M160.7 236.1C150.3 228.9 134 229.7 142.3 240.9C150.7 252.1 178.1 258.3 178.1 258.3C178.1 258.3 176 246.9 160.7 236.1Z" />
		<path id="Layer" class="shp1" d="M200.4 236.7C211.3 230.4 227.6 232.6 218.3 243C209 253.4 181.2 257.3 181.2 257.3C181.2 257.3 184.2 246.1 200.4 236.7Z" />
	</g>
	<g id="Layer">
	</g>
	<g id="Layer">
	</g>
	<g id="Layer">
		<g id="Layer">
		</g>
	</g>
	<g id="Layer">
	</g>
	<g id="Layer">
		<g id="Layer">
			<g id="Layer">
				<g id="Layer">
					<g id="Layer">
					</g>
					<g id="Layer">
						<g id="Layer">
							<g id="Layer">
								<g id="Layer">
									<g id="Layer">
										<g id="Layer">
											<g id="Layer">
												<g id="Layer">
													<g id="Layer">
														<g id="Layer">
															<g id="Layer">
																<g id="Layer">
																	<g id="Layer">
																		<g id="Layer">
																			<g id="Layer">
																				<g id="Layer">
																					<g id="Layer">
																						<g id="Layer">
																							<g id="Layer">
																								<g id="Layer">
																									<g id="Layer">
																									</g>
																								</g>
																							</g>
																						</g>
																					</g>
																				</g>
																			</g>
																		</g>
																	</g>
																</g>
															</g>
														</g>
													</g>
												</g>
											</g>
										</g>
									</g>
								</g>
							</g>
						</g>
					</g>
				</g>
			</g>
			<g id="Layer">
			</g>
		</g>
	</g>
	<g id="Layer">
	</g>
	<g id="Layer">
	</g>
	<g id="Layer">
	</g>
	<g id="Layer">
	</g>
	<g id="Layer">
		<path id="Layer" class="shp1" d="M1160.7 657.08C1169.5 639.67 1203.8 556.27 1203.8 478.98C1203.8 348.43 1178.8 313 1178.8 313L1178.8 318.28C1178.8 318.28 1199.4 369.16 1198.7 460.33C1198 554.51 1165.1 641.13 1151.2 661.64C1151.2 661.64 1151.9 674.59 1160.7 657.08Z" />
		<path id="Layer" class="shp1" d="M1177.1 618.4C1177.1 618.4 1228.7 623.8 1249.9 609.3C1271.1 594.7 1243 583.6 1220.6 590.1C1187.5 599.6 1177.1 618.4 1177.1 618.4Z" />
		<path id="Layer" class="shp1" d="M1191.9 561.4C1191.9 561.4 1236.9 566.1 1255.4 553.4C1273.9 540.7 1249.4 531 1229.9 536.6C1201 545 1191.9 561.4 1191.9 561.4Z" />
		<path id="Layer" class="shp1" d="M1173.7 616.2C1173.7 616.2 1122.4 608.4 1105.5 589C1088.6 569.5 1118.6 565.8 1138.7 577.8C1168.4 595.4 1173.7 616.2 1173.7 616.2Z" />
		<path id="Layer" class="shp1" d="M1189.3 558.9C1189.3 558.9 1148.2 546.2 1136.8 528.2C1125.4 510.2 1150.4 510.8 1165.4 523.1C1187.5 541.3 1189.3 558.9 1189.3 558.9Z" />
		<path id="Layer" class="shp1" d="M1200.4 513.4C1200.4 513.4 1236.1 517.2 1250.8 507.1C1265.5 497 1246.1 489.3 1230.6 493.8C1207.6 500.4 1200.4 513.4 1200.4 513.4Z" />
		<path id="Layer" class="shp1" d="M1200.3 525C1200.3 525 1165.7 515.4 1155.7 500.7C1145.7 485.9 1166.6 485.9 1179.4 495.7C1198.4 510.3 1200.3 525 1200.3 525Z" />
		<path id="Layer" class="shp1" d="M1200.4 470.4C1200.4 470.4 1231.9 471.1 1244 461.2C1256.1 451.3 1238.6 446 1225.3 451C1205.8 458.6 1200.4 470.4 1200.4 470.4Z" />
		<path id="Layer" class="shp1" d="M1200.4 472.3C1200.4 472.3 1170 463.9 1161.3 451C1152.6 438.1 1170.9 438 1182.1 446.6C1198.7 459.4 1200.4 472.3 1200.4 472.3Z" />
		<path id="Layer" class="shp1" d="M1198.3 432.9C1198.3 432.9 1225.3 428 1233.9 417.4C1242.5 406.8 1226.6 405.4 1216.2 412C1200.7 421.8 1198.3 432.9 1198.3 432.9Z" />
		<path id="Layer" class="shp1" d="M1199.4 434.3C1199.4 434.3 1172.9 427 1165.3 415.7C1157.7 404.4 1173.7 404.3 1183.4 411.9C1198 423 1199.4 434.3 1199.4 434.3Z" />
		<path id="Layer" class="shp1" d="M1197.9 397.1C1197.9 397.1 1218 392.6 1224.1 384.4C1230.2 376.2 1218.2 375.6 1210.7 380.9C1199.4 388.8 1197.9 397.1 1197.9 397.1Z" />
		<path id="Layer" class="shp1" d="M1195.7 396.4C1195.7 396.4 1175.3 393.6 1168.5 385.9C1161.7 378.3 1173.6 376.7 1181.6 381.3C1193.5 388.2 1195.7 396.4 1195.7 396.4Z" />
	</g>
	<g id="Layer">
	</g>
	<g id="Layer">
	</g>
	<g id="Layer">
		<g id="Layer">
		</g>
	</g>
	<g id="Layer">
		<g id="Layer">
		</g>
		<g id="Layer">
			<g id="Layer">
				<g id="Layer">
					<g id="Layer">
						<g id="Layer">
							<g id="Layer">
								<g id="Layer">
									<g id="Layer">
										<g id="Layer">
											<g id="Layer">
												<g id="Layer">
													<g id="Layer">
														<g id="Layer">
															<g id="Layer">
																<g id="Layer">
																	<g id="Layer">
																	</g>
																</g>
															</g>
														</g>
													</g>
												</g>
											</g>
										</g>
									</g>
								</g>
							</g>
						</g>
					</g>
				</g>
			</g>
		</g>
	</g>
	<g id="Layer">
	</g>
	<g id="Layer">
		<g id="Layer">
		</g>
		<g id="Layer">
			<g id="Layer">
				<g id="Layer">
					<g id="Layer">
						<g id="Layer">
							<g id="Layer">
								<g id="Layer">
									<g id="Layer">
										<g id="Layer">
											<g id="Layer">
												<g id="Layer">
													<g id="Layer">
														<g id="Layer">
															<g id="Layer">
																<g id="Layer">
																</g>
															</g>
														</g>
													</g>
												</g>
											</g>
										</g>
									</g>
								</g>
							</g>
						</g>
					</g>
				</g>
			</g>
		</g>
	</g>
	<g id="Layer">
	</g>
	<g id="Layer">
	</g>
	<g id="Layer">
		<path id="Layer" class="shp2" d="M805.6 541.9C803.5 524.9 803.8 540.5 804.5 563.6C805.9 555.6 806.4 548.2 805.6 541.9Z" />
		<path id="Layer" class="shp2" d="M833.1 463.7C832.9 460.4 832.6 457.1 832.3 453.9C830.8 438.2 831.4 445.1 833.1 463.7Z" />
	</g>
	<g id="Layer">
	</g>
	<g id="Layer">
	</g>
	<g id="Layer">
		<g id="Layer">
		</g>
	</g>
	<g id="Layer">
		<path id="Layer" class="shp3" d="M640 554C666.81 528.26 713.82 359.04 677.36 293" />
		<path id="Layer" class="shp4" d="M1062 356.04C1067.8 358.54 1097.3 363.24 1108.2 343.64C1119.1 324.04 1118.3 306.14 1114.1 292.14C1109.9 278.14 1105.3 256.44 1096.7 259.24C1089.5 261.64 1083.5 292.14 1083.5 292.14C1083.5 292.14 1062.7 272.94 1055.7 274.84C1049.4 276.54 1049 305.14 1049 305.14C1049 305.14 1032.3 287.74 1027 292.14C1019.6 298.44 1033 343.64 1062 356.04Z" />
		<path id="Layer copy 4" class="shp4" d="M654 301.04C659.8 303.54 689.3 308.24 700.2 288.64C711.1 269.04 710.3 251.14 706.1 237.14C701.9 223.14 697.3 201.44 688.7 204.24C681.5 206.64 675.5 237.14 675.5 237.14C675.5 237.14 654.7 217.94 647.7 219.84C641.4 221.54 641 250.14 641 250.14C641 250.14 624.3 232.74 619 237.14C611.6 243.44 625 288.64 654 301.04Z" />
	</g>
	<g id="Layer">
		<path id="Layer" class="shp3" d="M1343.2 659.8C1355.2 636.5 1377 482.9 1361.3 422.8" />
		<path id="Layer copy 7" class="shp3" d="M1113 642C1095.19 613.78 1062.84 427.78 1086.14 355" />
		<path id="Layer copy 6" class="shp3" d="M874 615C885.59 588.65 906.65 414.96 891.49 347" />
		<path id="Layer" class="shp4" d="M1333.6 422.1C1339.4 424.6 1368.9 429.3 1379.8 409.7C1390.7 390.1 1389.9 372.2 1385.7 358.2C1381.5 344.2 1376.9 322.5 1368.3 325.3C1361.1 327.7 1355.1 358.2 1355.1 358.2C1355.1 358.2 1334.3 339 1327.3 340.9C1321 342.6 1320.6 371.2 1320.6 371.2C1320.6 371.2 1303.9 353.8 1298.6 358.2C1291.1 364.4 1304.6 409.7 1333.6 422.1Z" />
		<path id="Layer copy 5" class="shp4" d="M860.6 356.1C866.4 358.6 895.9 363.3 906.8 343.7C917.7 324.1 916.9 306.2 912.7 292.2C908.5 278.2 903.9 256.5 895.3 259.3C888.1 261.7 882.1 292.2 882.1 292.2C882.1 292.2 861.3 273 854.3 274.9C848 276.6 847.6 305.2 847.6 305.2C847.6 305.2 830.9 287.8 825.6 292.2C818.1 298.4 831.6 343.7 860.6 356.1Z" />
	</g>
	<g id="Layer">
		<g id="Layer">
			<g id="Layer">
			</g>
			<g id="Layer">
				<g id="Layer">
					<g id="Layer">
						<g id="Layer">
							<g id="Layer">
								<g id="Layer">
									<g id="Layer">
										<g id="Layer">
											<g id="Layer">
												<g id="Layer">
													<g id="Layer">
														<g id="Layer">
															<g id="Layer">
																<g id="Layer">
																	<g id="Layer">
																	</g>
																</g>
															</g>
														</g>
													</g>
												</g>
											</g>
										</g>
									</g>
								</g>
							</g>
						</g>
					</g>
				</g>
			</g>
		</g>
		<g id="Layer">
			<g id="Layer">
			</g>
			<path id="Layer" class="shp2" d="M1521.11 833.39C1426.26 825.93 1289.83 733.74 1067.5 655.84C1031.44 601.78 1056.92 509.71 1042.84 542.5C1025.71 582.22 1047.05 647.18 1025.41 641.62C1024.81 641.43 1024.21 641.23 1023.6 641.03L1023.6 641.03C999.04 631.3 981.33 511.12 975.82 525.45C971.11 537.68 988.25 633.07 950.15 618.93C880.83 570.99 1020.02 331.75 947.47 458.64C903.89 534.94 906.73 585.62 909.98 608.2C879.11 567.41 882.22 495.38 874.26 516.34C865.52 539.5 873.93 630.64 855.67 562.86C837.42 494.98 892.57 414.01 855.06 471.37C817.54 528.82 810.21 598.07 801.08 563.23C785.99 505.83 856.8 388.95 823.61 434.28C790.41 479.6 765.37 562.17 768.68 548.95C771.01 539.33 758.44 409.01 753.7 359.85C759.8 447.91 726.38 549.63 727.66 532.22C728.4 522.62 726.76 486.33 725.68 459.94C721.45 486.17 707.97 518.46 699.99 536.21C687.04 440.1 622.8 255.12 661.6 389.17C706.14 542.77 648.43 587.16 656.13 556.31C663.82 525.45 580.32 407.31 591.68 431.44C602.95 455.56 648.43 587.16 605.36 561.05C562.28 534.94 540.24 409.78 539.02 466.99C538.1 508.8 560.08 550.35 563.29 565.53C559.19 565.66 555 567.39 551.19 566.11C525.33 557.49 494.89 492.09 484.17 474.66C493.68 490.5 499.01 570.17 484.63 571.86C406.91 511.08 471.68 326.94 437.41 406.08C411.02 466.76 433.46 547.81 440.07 578.16C437.57 578.58 434.97 579 432.48 579.41C416.68 550.82 396.92 482.85 405.22 511.8C410.95 531.76 411.65 590.35 387.23 588.12C382.3 552.75 338.39 433.44 353.88 476.94C370.29 523.03 367.37 564.15 354.64 589.34C353.16 592.25 347.79 597.38 344.7 598.21C338.26 487.65 209.69 300.11 247.88 372.15C279.58 432.04 298.73 572.51 303.38 609.68C302.58 609.89 301.78 610.19 301.08 610.4C291.62 587.06 266.61 525.33 275.89 552.27C287.21 585.19 262.14 619.26 262.14 619.26C262.14 619.26 210.82 482.4 226.77 534.1C236.27 564.83 231.7 613.67 225.56 636.81C222.17 638.13 218.78 639.55 215.38 640.88C215.07 638.98 214.86 636.68 214.64 633.98C210.37 579.01 146.32 498.14 171.07 534.47C195.81 570.81 192.05 664.93 184.26 651.79C176.47 638.64 134.6 583.92 134.6 583.92C134.6 583.92 164.06 651.62 154.47 668.29C151.98 669.5 149.58 670.72 147.19 671.94C144.09 671.76 140.18 670.38 135.16 667.42C87.07 639.14 101.71 496.14 94.74 575.39C90.84 619.92 113.83 662.96 124.38 684.29C121.09 686.21 117.8 688.04 114.61 689.86C112.8 688.47 110.69 686.98 108.48 685.3C51.29 641.68 65.6 450.28 57.17 535.24C48.64 620.2 84.78 685.46 84.78 685.46L39.7 643.96C39.7 643.96 85.32 720.65 60.22 705.42C35.11 690.19 19.7 644.09 19.7 644.09C19.7 644.09 -2.55 710.75 26.31 764.45C59.73 826.63 147.16 785.84 238.67 772.92C464.63 780.4 547.63 780.84 941.9 819.19C1251.25 884.31 1650.58 843.52 1521.11 833.39Z" />
			<path id="Layer copy 3" class="shp2" d="M2059.11 928.39C1964.26 920.93 1827.83 828.74 1605.5 750.84C1569.44 696.78 1594.92 604.71 1580.84 637.5C1563.71 677.22 1585.05 742.18 1563.41 736.62C1562.81 736.43 1562.21 736.23 1561.6 736.03L1561.6 736.03C1537.04 726.3 1519.33 606.12 1513.82 620.45C1509.11 632.68 1526.25 728.07 1488.15 713.93C1418.83 665.99 1558.02 426.75 1485.47 553.64C1441.89 629.94 1444.73 680.62 1447.98 703.2C1417.11 662.41 1420.22 590.38 1412.26 611.34C1403.52 634.5 1411.93 725.64 1393.67 657.86C1375.42 589.98 1430.57 509.01 1393.06 566.37C1355.54 623.82 1348.21 693.07 1339.08 658.23C1323.99 600.83 1394.8 483.95 1361.61 529.28C1328.41 574.6 1303.37 657.17 1306.68 643.95C1309.01 634.33 1296.44 504.01 1291.7 454.85C1297.8 542.91 1264.38 644.63 1265.66 627.22C1266.4 617.62 1264.76 581.33 1263.68 554.94C1259.45 581.17 1245.97 613.46 1237.99 631.21C1225.04 535.1 1160.8 350.12 1199.6 484.17C1244.14 637.77 1186.43 682.16 1194.13 651.31C1201.82 620.45 1118.32 502.31 1129.68 526.44C1140.95 550.56 1186.43 682.16 1143.36 656.05C1100.28 629.94 1078.24 504.78 1077.02 561.99C1076.1 603.8 1098.08 645.35 1101.29 660.53C1097.19 660.66 1093 662.39 1089.19 661.11C1063.33 652.49 1032.89 587.09 1022.17 569.66C1031.68 585.5 1037.01 665.17 1022.63 666.86C944.91 606.08 1009.68 421.94 975.41 501.08C949.02 561.76 971.46 642.81 978.07 673.16C975.57 673.58 972.97 674 970.48 674.41C954.68 645.82 934.92 577.85 943.22 606.8C948.95 626.76 949.65 685.35 925.23 683.12C920.3 647.75 876.39 528.44 891.88 571.94C908.29 618.03 905.37 659.15 892.64 684.34C891.16 687.25 885.79 692.38 882.7 693.21C876.26 582.65 747.69 395.11 785.88 467.15C817.58 527.04 836.73 667.51 841.38 704.68C840.58 704.89 839.78 705.19 839.08 705.4C829.62 682.06 804.61 620.33 813.89 647.27C825.21 680.19 800.14 714.26 800.14 714.26C800.14 714.26 748.82 577.4 764.77 629.1C774.27 659.83 769.7 708.67 763.56 731.81C760.17 733.13 756.78 734.55 753.38 735.88C753.07 733.98 752.86 731.68 752.64 728.98C748.37 674.01 684.32 593.14 709.07 629.47C733.81 665.81 730.05 759.93 722.26 746.79C714.47 733.64 672.6 678.92 672.6 678.92C672.6 678.92 702.06 746.62 692.47 763.29C689.98 764.5 687.58 765.72 685.19 766.94C682.09 766.76 678.18 765.38 673.16 762.42C625.07 734.14 639.71 591.14 632.74 670.39C628.84 714.92 651.83 757.96 662.38 779.29C659.09 781.21 655.8 783.04 652.61 784.86C650.8 783.47 648.69 781.98 646.48 780.3C589.29 736.68 603.6 545.28 595.17 630.24C586.64 715.2 622.78 780.46 622.78 780.46L577.7 738.96C577.7 738.96 623.32 815.65 598.22 800.42C573.11 785.19 557.7 739.09 557.7 739.09C557.7 739.09 535.45 805.75 564.31 859.45C597.73 921.63 685.16 880.84 776.67 867.92C1002.63 875.4 1085.63 875.84 1479.9 914.19C1789.25 979.31 2188.58 938.52 2059.11 928.39Z" />
			<g id="Layer">
				<g id="Layer">
					<g id="Layer">
						<g id="Layer">
							<g id="Layer">
								<g id="Layer">
									<g id="Layer">
										<g id="Layer">
											<g id="Layer">
												<g id="Layer">
													<g id="Layer">
														<g id="Layer">
															<g id="Layer">
																<g id="Layer">
																	<g id="Layer">
																	</g>
																</g>
															</g>
														</g>
													</g>
												</g>
											</g>
										</g>
									</g>
								</g>
							</g>
						</g>
					</g>
				</g>
			</g>
		</g>
	</g>
</svg>